<svg width="130" height="130" viewBox="0 0 130 130" fill="none" xmlns="http://www.w3.org/2000/svg">
<g filter="url(#filter0_b_511_16428)">
<path d="M108.757 63.0252C95.864 62.5706 82.9701 60.0624 70.0346 59.6475C53.3681 59.1129 36.704 64.9874 20 64.4516C21.8247 42.1679 32.5456 23.7078 55.8345 21.3806C63.9004 20.5746 72.497 20.8486 79.9865 24.1785C90.4384 28.8255 98.741 35.8158 104.375 46.3484C107.292 51.8023 107.376 57.323 108.757 63.0252ZM108.757 63.0252C108.884 63.0298 109.012 63.0341 109.14 63.0381M108.757 63.0252C108.862 63.4613 108.975 63.8984 109.098 64.3367M40.5522 63.4762C40.3215 70.6699 44.6416 77.4968 42.6851 84.7912C41.5286 89.1034 37.4104 92.5709 36.4987 96.7687C35.6804 100.536 37.2107 104.428 37.0888 108.228M56.137 62.4062C55.9063 69.5998 60.2264 76.4268 58.2699 83.7212C57.1133 88.0333 52.9952 91.5008 52.0835 95.6986C51.2652 99.4664 52.7954 103.358 52.6736 107.158M72.133 60.1985C71.9023 67.3921 76.2224 74.2191 74.2659 81.5134C73.1094 85.8256 68.9912 89.2931 68.0795 93.4909C67.2612 97.2587 68.7915 101.151 68.6696 104.95M88.6244 63.4483C88.3936 70.6419 92.7137 77.4688 90.7573 84.7632C89.6007 89.0754 85.4826 92.5429 84.5709 96.7407C83.7526 100.508 85.2828 104.4 85.1609 108.2" stroke="black" stroke-opacity="0.8" style="stroke:black;stroke-opacity:0.8;" stroke-width="2" stroke-linecap="round" stroke-linejoin="round"/>
</g>
<defs>
<filter id="filter0_b_511_16428" x="11" y="12" width="107.141" height="105.228" filterUnits="userSpaceOnUse" color-interpolation-filters="sRGB">
<feFlood flood-opacity="0" result="BackgroundImageFix"/>
<feGaussianBlur in="BackgroundImageFix" stdDeviation="4"/>
<feComposite in2="SourceAlpha" operator="in" result="effect1_backgroundBlur_511_16428"/>
<feBlend mode="normal" in="SourceGraphic" in2="effect1_backgroundBlur_511_16428" result="shape"/>
</filter>
</defs>
</svg>
