<svg width="1330" height="94" viewBox="0 0 1330 94" fill="none" xmlns="http://www.w3.org/2000/svg">
<path d="M27.1381 66.8602C23.5195 66.8602 20.1761 65.9556 17.1081 64.1462C14.0401 62.3369 11.6015 59.8982 9.79213 56.8302C7.98279 53.7622 7.07812 50.4189 7.07812 46.8002C7.07812 43.1816 7.98279 39.8382 9.79213 36.7702C11.6015 33.7022 14.0401 31.2636 17.1081 29.4542C20.1761 27.6449 23.5195 26.7402 27.1381 26.7402H94.3981V31.4602H27.1381C24.3848 31.4602 21.8281 32.1682 19.4681 33.5842C17.1081 34.9216 15.2201 36.7702 13.8041 39.1302C12.4668 41.4902 11.7981 44.0469 11.7981 46.8002C11.7981 49.5536 12.4668 52.1102 13.8041 54.4702C15.2201 56.8302 17.1081 58.7182 19.4681 60.1342C21.8281 61.4716 24.3848 62.1402 27.1381 62.1402H94.3981V66.8602H27.1381Z" fill="#1D1D1D" style="fill:#1D1D1D;fill:color(display-p3 0.1137 0.1137 0.1137);fill-opacity:1;"/>
<path d="M155.717 66.8602C147.771 66.8602 140.455 65.9162 133.769 64.0282C127.082 62.1402 121.772 59.6622 117.839 56.5942C113.984 53.4476 112.057 50.1829 112.057 46.8002C112.057 43.4176 113.984 40.1922 117.839 37.1242C121.772 33.9776 127.082 31.4602 133.769 29.5722C140.455 27.6842 147.771 26.7402 155.717 26.7402C163.662 26.7402 170.978 27.6842 177.665 29.5722C184.351 31.4602 189.622 33.9776 193.477 37.1242C197.41 40.1922 199.377 43.4176 199.377 46.8002C199.377 50.1829 197.41 53.4476 193.477 56.5942C189.622 59.6622 184.351 62.1402 177.665 64.0282C170.978 65.9162 163.662 66.8602 155.717 66.8602ZM155.717 62.1402C161.538 62.1402 167.005 61.5896 172.119 60.4882C177.311 59.3869 181.716 57.9316 185.335 56.1222C188.875 54.3129 191.353 52.5036 192.769 50.6942C193.949 49.5142 194.539 48.2949 194.539 47.0362V46.5642C194.539 45.3056 193.949 44.0862 192.769 42.9062C191.353 41.0969 188.875 39.2876 185.335 37.4782C181.716 35.6689 177.311 34.2136 172.119 33.1122C167.005 32.0109 161.538 31.4602 155.717 31.4602C149.895 31.4602 144.389 32.0109 139.197 33.1122C134.083 34.2136 129.717 35.6689 126.099 37.4782C122.559 39.2876 120.081 41.0969 118.665 42.9062C117.485 44.0862 116.895 45.3056 116.895 46.5642V47.0362C116.895 48.2949 117.485 49.5142 118.665 50.6942C120.081 52.5036 122.559 54.3129 126.099 56.1222C129.717 57.9316 134.083 59.3869 139.197 60.4882C144.389 61.5896 149.895 62.1402 155.717 62.1402Z" fill="#1D1D1D" style="fill:#1D1D1D;fill:color(display-p3 0.1137 0.1137 0.1137);fill-opacity:1;"/>
<path d="M217.035 28.2742L299.635 58.2462V26.7402H304.355V65.3262L221.755 35.3542V66.8602H217.035V28.2742Z" fill="#1D1D1D" style="fill:#1D1D1D;fill:color(display-p3 0.1137 0.1137 0.1137);fill-opacity:1;"/>
<path d="M363.314 31.4602H322.014V26.7402H409.334V31.4602H368.034V66.8602H363.314V31.4602Z" fill="#1D1D1D" style="fill:#1D1D1D;fill:color(display-p3 0.1137 0.1137 0.1137);fill-opacity:1;"/>
<path d="M447.029 28.1562L485.733 66.8602H479.007L467.207 55.0602H426.851L415.051 66.8602H408.325L447.029 28.1562ZM462.487 50.3402L447.029 34.8822L431.571 50.3402H462.487Z" fill="#1D1D1D" style="fill:#1D1D1D;fill:color(display-p3 0.1137 0.1137 0.1137);fill-opacity:1;"/>
<path d="M517.921 66.8602C514.303 66.8602 510.959 65.9556 507.891 64.1462C504.823 62.3369 502.385 59.8982 500.575 56.8302C498.766 53.7622 497.861 50.4189 497.861 46.8002C497.861 43.1816 498.766 39.8382 500.575 36.7702C502.385 33.7022 504.823 31.2636 507.891 29.4542C510.959 27.6449 514.303 26.7402 517.921 26.7402H585.181V31.4602H517.921C515.168 31.4602 512.611 32.1682 510.251 33.5842C507.891 34.9216 506.003 36.7702 504.587 39.1302C503.25 41.4902 502.581 44.0469 502.581 46.8002C502.581 49.5536 503.25 52.1102 504.587 54.4702C506.003 56.8302 507.891 58.7182 510.251 60.1342C512.611 61.4716 515.168 62.1402 517.921 62.1402H585.181V66.8602H517.921Z" fill="#1D1D1D" style="fill:#1D1D1D;fill:color(display-p3 0.1137 0.1137 0.1137);fill-opacity:1;"/>
<path d="M644.14 31.4602H602.84V26.7402H690.16V31.4602H648.86V66.8602H644.14V31.4602Z" fill="#1D1D1D" style="fill:#1D1D1D;fill:color(display-p3 0.1137 0.1137 0.1137);fill-opacity:1;"/>
</svg>
