<svg width="1330" height="95" viewBox="0 0 1330 95" fill="none" xmlns="http://www.w3.org/2000/svg">
<path d="M10.6211 26.77H15.3411V66.89H10.6211V26.77Z" fill="#1D1D1D" style="fill:#1D1D1D;fill:color(display-p3 0.1137 0.1137 0.1137);fill-opacity:1;"/>
<path d="M33.0088 28.304L115.609 58.276V26.77H120.329V65.356L37.7288 35.384V66.89H33.0088V28.304Z" fill="#1D1D1D" style="fill:#1D1D1D;fill:color(display-p3 0.1137 0.1137 0.1137);fill-opacity:1;"/>
<path d="M137.987 26.77H225.307V31.49H142.707V44.47H178.107V49.19H142.707V66.89H137.987V26.77Z" fill="#1D1D1D" style="fill:#1D1D1D;fill:color(display-p3 0.1137 0.1137 0.1137);fill-opacity:1;"/>
<path d="M274.872 66.89C266.927 66.89 259.611 65.946 252.924 64.058C246.237 62.17 240.927 59.692 236.994 56.624C233.139 53.4774 231.212 50.2127 231.212 46.83C231.212 43.4474 233.139 40.222 236.994 37.154C240.927 34.0074 246.237 31.49 252.924 29.602C259.611 27.714 266.927 26.77 274.872 26.77C282.817 26.77 290.133 27.714 296.82 29.602C303.507 31.49 308.777 34.0074 312.632 37.154C316.565 40.222 318.532 43.4474 318.532 46.83C318.532 50.2127 316.565 53.4774 312.632 56.624C308.777 59.692 303.507 62.17 296.82 64.058C290.133 65.946 282.817 66.89 274.872 66.89ZM274.872 62.17C280.693 62.17 286.161 61.6194 291.274 60.518C296.466 59.4167 300.871 57.9614 304.49 56.152C308.03 54.3427 310.508 52.5334 311.924 50.724C313.104 49.544 313.694 48.3247 313.694 47.066V46.594C313.694 45.3354 313.104 44.116 311.924 42.936C310.508 41.1267 308.03 39.3174 304.49 37.508C300.871 35.6987 296.466 34.2434 291.274 33.142C286.161 32.0407 280.693 31.49 274.872 31.49C269.051 31.49 263.544 32.0407 258.352 33.142C253.239 34.2434 248.873 35.6987 245.254 37.508C241.714 39.3174 239.236 41.1267 237.82 42.936C236.64 44.116 236.05 45.3354 236.05 46.594V47.066C236.05 48.3247 236.64 49.544 237.82 50.724C239.236 52.5334 241.714 54.3427 245.254 56.152C248.873 57.9614 253.239 59.4167 258.352 60.518C263.544 61.6194 269.051 62.17 274.872 62.17Z" fill="#1D1D1D" style="fill:#1D1D1D;fill:color(display-p3 0.1137 0.1137 0.1137);fill-opacity:1;"/>
<path d="M336.19 26.77H412.3C415.447 26.77 418.082 27.8714 420.206 30.074C422.409 32.198 423.51 34.8334 423.51 37.98C423.51 41.1267 422.409 43.8014 420.206 46.004C418.082 48.128 415.447 49.19 412.3 49.19H400.854L418.554 66.89H411.828L394.128 49.19H340.91V66.89H336.19V26.77ZM412.3 44.47C414.11 44.47 415.644 43.8407 416.902 42.582C418.161 41.2447 418.79 39.7107 418.79 37.98C418.79 36.1707 418.161 34.6367 416.902 33.378C415.644 32.1194 414.11 31.49 412.3 31.49H340.91V44.47H412.3Z" fill="#1D1D1D" style="fill:#1D1D1D;fill:color(display-p3 0.1137 0.1137 0.1137);fill-opacity:1;"/>
<path d="M441.169 30.074L484.829 60.636L528.489 30.074V66.89H523.769V38.806L484.829 66.064L445.889 38.806V66.89H441.169V30.074Z" fill="#1D1D1D" style="fill:#1D1D1D;fill:color(display-p3 0.1137 0.1137 0.1137);fill-opacity:1;"/>
<path d="M589.807 28.186L628.511 66.89H621.786L609.985 55.09H569.63L557.83 66.89H551.104L589.807 28.186ZM605.266 50.37L589.807 34.912L574.349 50.37H605.266Z" fill="#1D1D1D" style="fill:#1D1D1D;fill:color(display-p3 0.1137 0.1137 0.1137);fill-opacity:1;"/>
<path d="M674.795 31.49H633.495V26.77H720.815V31.49H679.515V66.89H674.795V31.49Z" fill="#1D1D1D" style="fill:#1D1D1D;fill:color(display-p3 0.1137 0.1137 0.1137);fill-opacity:1;"/>
<path d="M742.014 26.77H746.734V66.89H742.014V26.77Z" fill="#1D1D1D" style="fill:#1D1D1D;fill:color(display-p3 0.1137 0.1137 0.1137);fill-opacity:1;"/>
<path d="M808.061 66.89C800.116 66.89 792.8 65.946 786.113 64.058C779.427 62.17 774.117 59.692 770.183 56.624C766.329 53.4774 764.401 50.2127 764.401 46.83C764.401 43.4474 766.329 40.222 770.183 37.154C774.117 34.0074 779.427 31.49 786.113 29.602C792.8 27.714 800.116 26.77 808.061 26.77C816.007 26.77 823.323 27.714 830.009 29.602C836.696 31.49 841.967 34.0074 845.821 37.154C849.755 40.222 851.721 43.4474 851.721 46.83C851.721 50.2127 849.755 53.4774 845.821 56.624C841.967 59.692 836.696 62.17 830.009 64.058C823.323 65.946 816.007 66.89 808.061 66.89ZM808.061 62.17C813.883 62.17 819.35 61.6194 824.463 60.518C829.655 59.4167 834.061 57.9614 837.679 56.152C841.219 54.3427 843.697 52.5334 845.113 50.724C846.293 49.544 846.883 48.3247 846.883 47.066V46.594C846.883 45.3354 846.293 44.116 845.113 42.936C843.697 41.1267 841.219 39.3174 837.679 37.508C834.061 35.6987 829.655 34.2434 824.463 33.142C819.35 32.0407 813.883 31.49 808.061 31.49C802.24 31.49 796.733 32.0407 791.541 33.142C786.428 34.2434 782.062 35.6987 778.443 37.508C774.903 39.3174 772.425 41.1267 771.009 42.936C769.829 44.116 769.239 45.3354 769.239 46.594V47.066C769.239 48.3247 769.829 49.544 771.009 50.724C772.425 52.5334 774.903 54.3427 778.443 56.152C782.062 57.9614 786.428 59.4167 791.541 60.518C796.733 61.6194 802.24 62.17 808.061 62.17Z" fill="#1D1D1D" style="fill:#1D1D1D;fill:color(display-p3 0.1137 0.1137 0.1137);fill-opacity:1;"/>
<path d="M869.38 28.304L951.98 58.276V26.77H956.7V65.356L874.1 35.384V66.89H869.38V28.304Z" fill="#1D1D1D" style="fill:#1D1D1D;fill:color(display-p3 0.1137 0.1137 0.1137);fill-opacity:1;"/>
</svg>
