<svg width="1330" height="95" viewBox="0 0 1330 95" fill="none" xmlns="http://www.w3.org/2000/svg">
<path d="M7.07812 27.251H83.1881C86.3348 27.251 88.9701 28.3523 91.0941 30.555C93.2968 32.679 94.3981 35.3143 94.3981 38.461C94.3981 41.6076 93.2968 44.2823 91.0941 46.485C88.9701 48.609 86.3348 49.671 83.1881 49.671H11.7981V67.371H7.07812V27.251ZM83.1881 44.951C84.9975 44.951 86.5315 44.3216 87.7901 43.063C89.0488 41.7256 89.6781 40.1916 89.6781 38.461C89.6781 36.6516 89.0488 35.1176 87.7901 33.859C86.5315 32.6003 84.9975 31.971 83.1881 31.971H11.7981V44.951H83.1881Z" fill="#1D1D1D" style="fill:#1D1D1D;fill:color(display-p3 0.1137 0.1137 0.1137);fill-opacity:1;"/>
<path d="M155.717 67.371C147.771 67.371 140.455 66.427 133.769 64.539C127.082 62.651 121.772 60.173 117.839 57.105C113.984 53.9583 112.057 50.6936 112.057 47.311C112.057 43.9283 113.984 40.703 117.839 37.635C121.772 34.4883 127.082 31.971 133.769 30.083C140.455 28.195 147.771 27.251 155.717 27.251C163.662 27.251 170.978 28.195 177.665 30.083C184.351 31.971 189.622 34.4883 193.477 37.635C197.41 40.703 199.377 43.9283 199.377 47.311C199.377 50.6936 197.41 53.9583 193.477 57.105C189.622 60.173 184.351 62.651 177.665 64.539C170.978 66.427 163.662 67.371 155.717 67.371ZM155.717 62.651C161.538 62.651 167.005 62.1003 172.119 60.999C177.311 59.8976 181.716 58.4423 185.335 56.633C188.875 54.8236 191.353 53.0143 192.769 51.205C193.949 50.025 194.539 48.8056 194.539 47.547V47.075C194.539 45.8163 193.949 44.597 192.769 43.417C191.353 41.6076 188.875 39.7983 185.335 37.989C181.716 36.1796 177.311 34.7243 172.119 33.623C167.005 32.5216 161.538 31.971 155.717 31.971C149.895 31.971 144.389 32.5216 139.197 33.623C134.083 34.7243 129.717 36.1796 126.099 37.989C122.559 39.7983 120.081 41.6076 118.665 43.417C117.485 44.597 116.895 45.8163 116.895 47.075V47.547C116.895 48.8056 117.485 50.025 118.665 51.205C120.081 53.0143 122.559 54.8236 126.099 56.633C129.717 58.4423 134.083 59.8976 139.197 60.999C144.389 62.1003 149.895 62.651 155.717 62.651Z" fill="#1D1D1D" style="fill:#1D1D1D;fill:color(display-p3 0.1137 0.1137 0.1137);fill-opacity:1;"/>
<path d="M217.035 27.251H293.145C296.292 27.251 298.927 28.3523 301.051 30.555C303.254 32.679 304.355 35.3143 304.355 38.461C304.355 41.6076 303.254 44.2823 301.051 46.485C298.927 48.609 296.292 49.671 293.145 49.671H281.699L299.399 67.371H292.673L274.973 49.671H221.755V67.371H217.035V27.251ZM293.145 44.951C294.955 44.951 296.488 44.3216 297.747 43.063C299.006 41.7256 299.635 40.1916 299.635 38.461C299.635 36.6516 299.006 35.1176 297.747 33.859C296.488 32.6003 294.955 31.971 293.145 31.971H221.755V44.951H293.145Z" fill="#1D1D1D" style="fill:#1D1D1D;fill:color(display-p3 0.1137 0.1137 0.1137);fill-opacity:1;"/>
<path d="M359.741 31.971H318.441V27.251H405.761V31.971H364.461V67.371H359.741V31.971Z" fill="#1D1D1D" style="fill:#1D1D1D;fill:color(display-p3 0.1137 0.1137 0.1137);fill-opacity:1;"/>
<path d="M423.42 27.251H510.74V31.971H428.14V44.951H463.54V49.671H428.14V67.371H423.42V27.251Z" fill="#1D1D1D" style="fill:#1D1D1D;fill:color(display-p3 0.1137 0.1137 0.1137);fill-opacity:1;"/>
<path d="M560.305 67.371C552.359 67.371 545.043 66.427 538.357 64.539C531.67 62.651 526.36 60.173 522.427 57.105C518.572 53.9583 516.645 50.6936 516.645 47.311C516.645 43.9283 518.572 40.703 522.427 37.635C526.36 34.4883 531.67 31.971 538.357 30.083C545.043 28.195 552.359 27.251 560.305 27.251C568.25 27.251 575.566 28.195 582.253 30.083C588.939 31.971 594.21 34.4883 598.065 37.635C601.998 40.703 603.965 43.9283 603.965 47.311C603.965 50.6936 601.998 53.9583 598.065 57.105C594.21 60.173 588.939 62.651 582.253 64.539C575.566 66.427 568.25 67.371 560.305 67.371ZM560.305 62.651C566.126 62.651 571.593 62.1003 576.707 60.999C581.899 59.8976 586.304 58.4423 589.923 56.633C593.463 54.8236 595.941 53.0143 597.357 51.205C598.537 50.025 599.127 48.8056 599.127 47.547V47.075C599.127 45.8163 598.537 44.597 597.357 43.417C595.941 41.6076 593.463 39.7983 589.923 37.989C586.304 36.1796 581.899 34.7243 576.707 33.623C571.593 32.5216 566.126 31.971 560.305 31.971C554.483 31.971 548.977 32.5216 543.785 33.623C538.671 34.7243 534.305 36.1796 530.687 37.989C527.147 39.7983 524.669 41.6076 523.253 43.417C522.073 44.597 521.483 45.8163 521.483 47.075V47.547C521.483 48.8056 522.073 50.025 523.253 51.205C524.669 53.0143 527.147 54.8236 530.687 56.633C534.305 58.4423 538.671 59.8976 543.785 60.999C548.977 62.1003 554.483 62.651 560.305 62.651Z" fill="#1D1D1D" style="fill:#1D1D1D;fill:color(display-p3 0.1137 0.1137 0.1137);fill-opacity:1;"/>
<path d="M621.623 27.251H626.343V62.651H708.943V67.371H621.623V27.251Z" fill="#1D1D1D" style="fill:#1D1D1D;fill:color(display-p3 0.1137 0.1137 0.1137);fill-opacity:1;"/>
<path d="M730.142 27.251H734.862V67.371H730.142V27.251Z" fill="#1D1D1D" style="fill:#1D1D1D;fill:color(display-p3 0.1137 0.1137 0.1137);fill-opacity:1;"/>
<path d="M796.189 67.371C788.244 67.371 780.928 66.427 774.241 64.539C767.555 62.651 762.245 60.173 758.311 57.105C754.457 53.9583 752.529 50.6936 752.529 47.311C752.529 43.9283 754.457 40.703 758.311 37.635C762.245 34.4883 767.555 31.971 774.241 30.083C780.928 28.195 788.244 27.251 796.189 27.251C804.135 27.251 811.451 28.195 818.137 30.083C824.824 31.971 830.095 34.4883 833.949 37.635C837.883 40.703 839.849 43.9283 839.849 47.311C839.849 50.6936 837.883 53.9583 833.949 57.105C830.095 60.173 824.824 62.651 818.137 64.539C811.451 66.427 804.135 67.371 796.189 67.371ZM796.189 62.651C802.011 62.651 807.478 62.1003 812.591 60.999C817.783 59.8976 822.189 58.4423 825.807 56.633C829.347 54.8236 831.825 53.0143 833.241 51.205C834.421 50.025 835.011 48.8056 835.011 47.547V47.075C835.011 45.8163 834.421 44.597 833.241 43.417C831.825 41.6076 829.347 39.7983 825.807 37.989C822.189 36.1796 817.783 34.7243 812.591 33.623C807.478 32.5216 802.011 31.971 796.189 31.971C790.368 31.971 784.861 32.5216 779.669 33.623C774.556 34.7243 770.19 36.1796 766.571 37.989C763.031 39.7983 760.553 41.6076 759.137 43.417C757.957 44.597 757.367 45.8163 757.367 47.075V47.547C757.367 48.8056 757.957 50.025 759.137 51.205C760.553 53.0143 763.031 54.8236 766.571 56.633C770.19 58.4423 774.556 59.8976 779.669 60.999C784.861 62.1003 790.368 62.651 796.189 62.651Z" fill="#1D1D1D" style="fill:#1D1D1D;fill:color(display-p3 0.1137 0.1137 0.1137);fill-opacity:1;"/>
</svg>
