<svg width="1330" height="95" viewBox="0 0 1330 95" fill="none" xmlns="http://www.w3.org/2000/svg">
<path d="M11.7305 28.9907H18.2855L49.4505 60.1557L80.6155 28.9907H87.1705L49.4505 66.7107L11.7305 28.9907Z" fill="#1D1D1D" style="fill:#1D1D1D;fill:color(display-p3 0.1137 0.1137 0.1137);fill-opacity:1;"/>
<path d="M105.809 28.9907H110.409V68.0907H105.809V28.9907Z" fill="#1D1D1D" style="fill:#1D1D1D;fill:color(display-p3 0.1137 0.1137 0.1137);fill-opacity:1;"/>
<path d="M167.878 33.5907H127.628V28.9907H212.728V33.5907H172.478V68.0907H167.878V33.5907Z" fill="#1D1D1D" style="fill:#1D1D1D;fill:color(display-p3 0.1137 0.1137 0.1137);fill-opacity:1;"/>
<path d="M270.188 33.5907H229.938V28.9907H315.038V33.5907H274.788V68.0907H270.188V33.5907Z" fill="#1D1D1D" style="fill:#1D1D1D;fill:color(display-p3 0.1137 0.1137 0.1137);fill-opacity:1;"/>
<path d="M332.247 28.9907H417.347V33.5907H336.847V46.2407H417.347V50.8407H336.847V63.4907H417.347V68.0907H332.247V28.9907Z" fill="#1D1D1D" style="fill:#1D1D1D;fill:color(display-p3 0.1137 0.1137 0.1137);fill-opacity:1;"/>
<path d="M477.107 68.0907C469.363 68.0907 462.233 67.1707 455.717 65.3307C449.2 63.4907 444.025 61.0757 440.192 58.0857C436.435 55.0191 434.557 51.8374 434.557 48.5407C434.557 45.2441 436.435 42.1007 440.192 39.1107C444.025 36.0441 449.2 33.5907 455.717 31.7507C462.233 29.9107 469.363 28.9907 477.107 28.9907C484.85 28.9907 491.98 29.9107 498.497 31.7507C505.013 33.5907 510.15 36.0441 513.907 39.1107C517.74 42.1007 519.657 45.2441 519.657 48.5407C519.657 51.8374 517.74 55.0191 513.907 58.0857C510.15 61.0757 505.013 63.4907 498.497 65.3307C491.98 67.1707 484.85 68.0907 477.107 68.0907ZM477.107 63.4907C482.78 63.4907 488.108 62.9541 493.092 61.8807C498.152 60.8074 502.445 59.3891 505.972 57.6257C509.422 55.8624 511.837 54.0991 513.217 52.3357C514.367 51.1857 514.942 49.9974 514.942 48.7707V48.3107C514.942 47.0841 514.367 45.8957 513.217 44.7457C511.837 42.9824 509.422 41.2191 505.972 39.4557C502.445 37.6924 498.152 36.2741 493.092 35.2007C488.108 34.1274 482.78 33.5907 477.107 33.5907C471.433 33.5907 466.067 34.1274 461.007 35.2007C456.023 36.2741 451.768 37.6924 448.242 39.4557C444.792 41.2191 442.377 42.9824 440.997 44.7457C439.847 45.8957 439.272 47.0841 439.272 48.3107V48.7707C439.272 49.9974 439.847 51.1857 440.997 52.3357C442.377 54.0991 444.792 55.8624 448.242 57.6257C451.768 59.3891 456.023 60.8074 461.007 61.8807C466.067 62.9541 471.433 63.4907 477.107 63.4907Z" fill="#1D1D1D" style="fill:#1D1D1D;fill:color(display-p3 0.1137 0.1137 0.1137);fill-opacity:1;"/>
<path d="M559.291 53.7157C557.835 53.7157 556.608 53.2174 555.611 52.2207C554.615 51.2241 554.116 49.9974 554.116 48.5407C554.116 47.0841 554.615 45.8574 555.611 44.8607C556.608 43.8641 557.835 43.3657 559.291 43.3657C560.748 43.3657 561.975 43.8641 562.971 44.8607C563.968 45.8574 564.466 47.0841 564.466 48.5407C564.466 49.9974 563.968 51.2241 562.971 52.2207C561.975 53.2174 560.748 53.7157 559.291 53.7157Z" fill="#1D1D1D" style="fill:#1D1D1D;fill:color(display-p3 0.1137 0.1137 0.1137);fill-opacity:1;"/>
<path d="M595.489 28.9907H661.039C664.566 28.9907 667.824 29.8724 670.814 31.6357C673.804 33.3991 676.181 35.7757 677.944 38.7657C679.708 41.7557 680.589 45.0141 680.589 48.5407C680.589 52.0674 679.708 55.3257 677.944 58.3157C676.181 61.3057 673.804 63.6824 670.814 65.4457C667.824 67.2091 664.566 68.0907 661.039 68.0907H595.489V28.9907ZM661.039 63.4907C663.723 63.4907 666.214 62.8391 668.514 61.5357C670.814 60.1557 672.616 58.3157 673.919 56.0157C675.299 53.7157 675.989 51.2241 675.989 48.5407C675.989 45.8574 675.299 43.3657 673.919 41.0657C672.616 38.7657 670.814 36.9641 668.514 35.6607C666.214 34.2807 663.723 33.5907 661.039 33.5907H600.089V63.4907H661.039Z" fill="#1D1D1D" style="fill:#1D1D1D;fill:color(display-p3 0.1137 0.1137 0.1137);fill-opacity:1;"/>
<path d="M697.799 28.9907H782.899V33.5907H702.399V46.2407H782.899V50.8407H702.399V63.4907H782.899V68.0907H697.799V28.9907Z" fill="#1D1D1D" style="fill:#1D1D1D;fill:color(display-p3 0.1137 0.1137 0.1137);fill-opacity:1;"/>
<path d="M800.108 63.4907H874.284C876.047 63.4907 877.542 62.8774 878.768 61.6507C879.995 60.3474 880.608 58.8524 880.608 57.1657C880.608 55.4024 879.995 53.9074 878.768 52.6807C877.542 51.4541 876.047 50.8407 874.284 50.8407H811.033C807.967 50.8407 805.36 49.8057 803.214 47.7357C801.144 45.5891 800.108 42.9824 800.108 39.9157C800.108 36.8491 801.144 34.2807 803.214 32.2107C805.36 30.0641 807.967 28.9907 811.033 28.9907H885.208V33.5907H811.033C809.347 33.5907 807.852 34.2041 806.548 35.4307C805.322 36.6574 804.708 38.1524 804.708 39.9157C804.708 41.6024 805.322 43.0974 806.548 44.4007C807.852 45.6274 809.347 46.2407 811.033 46.2407H874.284C877.35 46.2407 879.918 47.3141 881.988 49.4607C884.135 51.5307 885.208 54.0991 885.208 57.1657C885.208 60.2324 884.135 62.8391 881.988 64.9857C879.918 67.0557 877.35 68.0907 874.284 68.0907H800.108V63.4907Z" fill="#1D1D1D" style="fill:#1D1D1D;fill:color(display-p3 0.1137 0.1137 0.1137);fill-opacity:1;"/>
<path d="M905.868 28.9907H910.468V68.0907H905.868V28.9907Z" fill="#1D1D1D" style="fill:#1D1D1D;fill:color(display-p3 0.1137 0.1137 0.1137);fill-opacity:1;"/>
<path d="M970.237 68.0907C962.493 68.0907 955.363 67.1707 948.847 65.3307C942.33 63.4907 937.155 61.0757 933.322 58.0857C929.565 55.0191 927.687 51.8374 927.687 48.5407C927.687 45.2441 929.565 42.1007 933.322 39.1107C937.155 36.0441 942.33 33.5907 948.847 31.7507C955.363 29.9107 962.493 28.9907 970.237 28.9907H978.287V33.5907H970.237C964.563 33.5907 959.197 34.1274 954.137 35.2007C949.153 36.2741 944.898 37.6924 941.372 39.4557C937.922 41.2191 935.507 42.9824 934.127 44.7457C932.977 45.8957 932.402 47.0841 932.402 48.3107V48.7707C932.402 49.9974 932.977 51.1857 934.127 52.3357C935.507 54.0991 937.922 55.8624 941.372 57.6257C944.898 59.3891 949.153 60.8074 954.137 61.8807C959.197 62.9541 964.563 63.4907 970.237 63.4907C976.6 63.4907 983.308 62.6091 990.362 60.8457C997.492 59.0057 1003.24 55.6707 1007.61 50.8407H973.687V46.2407H1012.79V48.5407C1012.79 51.8374 1010.87 55.0191 1007.04 58.0857C1003.28 61.0757 998.143 63.4907 991.627 65.3307C985.11 67.1707 977.98 68.0907 970.237 68.0907Z" fill="#1D1D1D" style="fill:#1D1D1D;fill:color(display-p3 0.1137 0.1137 0.1137);fill-opacity:1;"/>
<path d="M1024.27 30.4857L1104.77 59.6957V28.9907H1109.37V66.5957L1028.87 37.3857V68.0907H1024.27V30.4857Z" fill="#1D1D1D" style="fill:#1D1D1D;fill:color(display-p3 0.1137 0.1137 0.1137);fill-opacity:1;"/>
</svg>
