<svg width="1315" height="94" viewBox="0 0 1315 94" fill="none" xmlns="http://www.w3.org/2000/svg">
<g clip-path="url(#clip0_724_16770)">
<path d="M20.1381 66.8602C16.5195 66.8602 13.1761 65.9556 10.1081 64.1462C7.04013 62.3369 4.60146 59.8982 2.79213 56.8302C0.982792 53.7622 0.078125 50.4189 0.078125 46.8002C0.078125 43.1816 0.982792 39.8382 2.79213 36.7702C4.60146 33.7022 7.04013 31.2636 10.1081 29.4542C13.1761 27.6449 16.5195 26.7402 20.1381 26.7402H87.3981V31.4602H20.1381C17.3848 31.4602 14.8281 32.1682 12.4681 33.5842C10.1081 34.9216 8.22013 36.7702 6.80413 39.1302C5.46679 41.4902 4.79812 44.0469 4.79812 46.8002C4.79812 49.5536 5.46679 52.1102 6.80413 54.4702C8.22013 56.8302 10.1081 58.7182 12.4681 60.1342C14.8281 61.4716 17.3848 62.1402 20.1381 62.1402H87.3981V66.8602H20.1381Z" fill="black" style="fill:black;fill-opacity:1;"/>
<path d="M148.717 66.8602C140.771 66.8602 133.455 65.9162 126.769 64.0282C120.082 62.1402 114.772 59.6622 110.839 56.5942C106.984 53.4476 105.057 50.1829 105.057 46.8002C105.057 43.4176 106.984 40.1922 110.839 37.1242C114.772 33.9776 120.082 31.4602 126.769 29.5722C133.455 27.6842 140.771 26.7402 148.717 26.7402C156.662 26.7402 163.978 27.6842 170.665 29.5722C177.351 31.4602 182.622 33.9776 186.477 37.1242C190.41 40.1922 192.377 43.4176 192.377 46.8002C192.377 50.1829 190.41 53.4476 186.477 56.5942C182.622 59.6622 177.351 62.1402 170.665 64.0282C163.978 65.9162 156.662 66.8602 148.717 66.8602ZM148.717 62.1402C154.538 62.1402 160.005 61.5896 165.119 60.4882C170.311 59.3869 174.716 57.9316 178.335 56.1222C181.875 54.3129 184.353 52.5036 185.769 50.6942C186.949 49.5142 187.539 48.2949 187.539 47.0362V46.5642C187.539 45.3056 186.949 44.0862 185.769 42.9062C184.353 41.0969 181.875 39.2876 178.335 37.4782C174.716 35.6689 170.311 34.2136 165.119 33.1122C160.005 32.0109 154.538 31.4602 148.717 31.4602C142.895 31.4602 137.389 32.0109 132.197 33.1122C127.083 34.2136 122.717 35.6689 119.099 37.4782C115.559 39.2876 113.081 41.0969 111.665 42.9062C110.485 44.0862 109.895 45.3056 109.895 46.5642V47.0362C109.895 48.2949 110.485 49.5142 111.665 50.6942C113.081 52.5036 115.559 54.3129 119.099 56.1222C122.717 57.9316 127.083 59.3869 132.197 60.4882C137.389 61.5896 142.895 62.1402 148.717 62.1402Z" fill="black" style="fill:black;fill-opacity:1;"/>
<path d="M210.035 28.2742L292.635 58.2462V26.7402H297.355V65.3262L214.755 35.3542V66.8602H210.035V28.2742Z" fill="black" style="fill:black;fill-opacity:1;"/>
<path d="M356.314 31.4602H315.014V26.7402H402.334V31.4602H361.034V66.8602H356.314V31.4602Z" fill="black" style="fill:black;fill-opacity:1;"/>
<path d="M440.029 28.1562L478.733 66.8602H472.007L460.207 55.0602H419.851L408.051 66.8602H401.325L440.029 28.1562ZM455.487 50.3402L440.029 34.8822L424.571 50.3402H455.487Z" fill="black" style="fill:black;fill-opacity:1;"/>
<path d="M510.921 66.8602C507.303 66.8602 503.959 65.9556 500.891 64.1462C497.823 62.3369 495.385 59.8982 493.575 56.8302C491.766 53.7622 490.861 50.4189 490.861 46.8002C490.861 43.1816 491.766 39.8382 493.575 36.7702C495.385 33.7022 497.823 31.2636 500.891 29.4542C503.959 27.6449 507.303 26.7402 510.921 26.7402H578.181V31.4602H510.921C508.168 31.4602 505.611 32.1682 503.251 33.5842C500.891 34.9216 499.003 36.7702 497.587 39.1302C496.25 41.4902 495.581 44.0469 495.581 46.8002C495.581 49.5536 496.25 52.1102 497.587 54.4702C499.003 56.8302 500.891 58.7182 503.251 60.1342C505.611 61.4716 508.168 62.1402 510.921 62.1402H578.181V66.8602H510.921Z" fill="black" style="fill:black;fill-opacity:1;"/>
<path d="M637.14 31.4602H595.84V26.7402H683.16V31.4602H641.86V66.8602H637.14V31.4602Z" fill="black" style="fill:black;fill-opacity:1;"/>
</g>
<defs>
<clipPath id="clip0_724_16770">
<rect width="1315" height="94" fill="white" style="fill:white;fill-opacity:1;"/>
</clipPath>
</defs>
</svg>
