<svg width="1315" height="94" viewBox="0 0 1315 94" fill="none" xmlns="http://www.w3.org/2000/svg">
<g clip-path="url(#clip0_724_16767)">
<path d="M0.621094 26.7402H5.34109V66.8602H0.621094V26.7402Z" fill="black" style="fill:black;fill-opacity:1;"/>
<path d="M23.0088 28.2742L105.609 58.2462V26.7402H110.329V65.3262L27.7288 35.3542V66.8602H23.0088V28.2742Z" fill="black" style="fill:black;fill-opacity:1;"/>
<path d="M127.987 26.7402H215.307V31.4602H132.707V44.4402H168.107V49.1602H132.707V66.8602H127.987V26.7402Z" fill="black" style="fill:black;fill-opacity:1;"/>
<path d="M264.872 66.8602C256.927 66.8602 249.611 65.9162 242.924 64.0282C236.237 62.1402 230.927 59.6622 226.994 56.5942C223.139 53.4476 221.212 50.1829 221.212 46.8002C221.212 43.4176 223.139 40.1922 226.994 37.1242C230.927 33.9776 236.237 31.4602 242.924 29.5722C249.611 27.6842 256.927 26.7402 264.872 26.7402C272.817 26.7402 280.133 27.6842 286.82 29.5722C293.507 31.4602 298.777 33.9776 302.632 37.1242C306.565 40.1922 308.532 43.4176 308.532 46.8002C308.532 50.1829 306.565 53.4476 302.632 56.5942C298.777 59.6622 293.507 62.1402 286.82 64.0282C280.133 65.9162 272.817 66.8602 264.872 66.8602ZM264.872 62.1402C270.693 62.1402 276.161 61.5896 281.274 60.4882C286.466 59.3869 290.871 57.9316 294.49 56.1222C298.03 54.3129 300.508 52.5036 301.924 50.6942C303.104 49.5142 303.694 48.2949 303.694 47.0362V46.5642C303.694 45.3056 303.104 44.0862 301.924 42.9062C300.508 41.0969 298.03 39.2876 294.49 37.4782C290.871 35.6689 286.466 34.2136 281.274 33.1122C276.161 32.0109 270.693 31.4602 264.872 31.4602C259.051 31.4602 253.544 32.0109 248.352 33.1122C243.239 34.2136 238.873 35.6689 235.254 37.4782C231.714 39.2876 229.236 41.0969 227.82 42.9062C226.64 44.0862 226.05 45.3056 226.05 46.5642V47.0362C226.05 48.2949 226.64 49.5142 227.82 50.6942C229.236 52.5036 231.714 54.3129 235.254 56.1222C238.873 57.9316 243.239 59.3869 248.352 60.4882C253.544 61.5896 259.051 62.1402 264.872 62.1402Z" fill="black" style="fill:black;fill-opacity:1;"/>
<path d="M326.19 26.7402H402.3C405.447 26.7402 408.082 27.8416 410.206 30.0442C412.409 32.1682 413.51 34.8036 413.51 37.9502C413.51 41.0969 412.409 43.7716 410.206 45.9742C408.082 48.0982 405.447 49.1602 402.3 49.1602H390.854L408.554 66.8602H401.828L384.128 49.1602H330.91V66.8602H326.19V26.7402ZM402.3 44.4402C404.11 44.4402 405.644 43.8109 406.902 42.5522C408.161 41.2149 408.79 39.6809 408.79 37.9502C408.79 36.1409 408.161 34.6069 406.902 33.3482C405.644 32.0896 404.11 31.4602 402.3 31.4602H330.91V44.4402H402.3Z" fill="black" style="fill:black;fill-opacity:1;"/>
<path d="M431.169 30.0442L474.829 60.6062L518.489 30.0442V66.8602H513.769V38.7762L474.829 66.0342L435.889 38.7762V66.8602H431.169V30.0442Z" fill="black" style="fill:black;fill-opacity:1;"/>
<path d="M579.807 28.1562L618.511 66.8602H611.786L599.985 55.0602H559.63L547.83 66.8602H541.104L579.807 28.1562ZM595.266 50.3402L579.807 34.8822L564.349 50.3402H595.266Z" fill="black" style="fill:black;fill-opacity:1;"/>
<path d="M664.795 31.4602H623.495V26.7402H710.815V31.4602H669.515V66.8602H664.795V31.4602Z" fill="black" style="fill:black;fill-opacity:1;"/>
<path d="M732.014 26.7402H736.734V66.8602H732.014V26.7402Z" fill="black" style="fill:black;fill-opacity:1;"/>
<path d="M798.061 66.8602C790.116 66.8602 782.8 65.9162 776.113 64.0282C769.427 62.1402 764.117 59.6622 760.183 56.5942C756.329 53.4476 754.401 50.1829 754.401 46.8002C754.401 43.4176 756.329 40.1922 760.183 37.1242C764.117 33.9776 769.427 31.4602 776.113 29.5722C782.8 27.6842 790.116 26.7402 798.061 26.7402C806.007 26.7402 813.323 27.6842 820.009 29.5722C826.696 31.4602 831.967 33.9776 835.821 37.1242C839.755 40.1922 841.721 43.4176 841.721 46.8002C841.721 50.1829 839.755 53.4476 835.821 56.5942C831.967 59.6622 826.696 62.1402 820.009 64.0282C813.323 65.9162 806.007 66.8602 798.061 66.8602ZM798.061 62.1402C803.883 62.1402 809.35 61.5896 814.463 60.4882C819.655 59.3869 824.061 57.9316 827.679 56.1222C831.219 54.3129 833.697 52.5036 835.113 50.6942C836.293 49.5142 836.883 48.2949 836.883 47.0362V46.5642C836.883 45.3056 836.293 44.0862 835.113 42.9062C833.697 41.0969 831.219 39.2876 827.679 37.4782C824.061 35.6689 819.655 34.2136 814.463 33.1122C809.35 32.0109 803.883 31.4602 798.061 31.4602C792.24 31.4602 786.733 32.0109 781.541 33.1122C776.428 34.2136 772.062 35.6689 768.443 37.4782C764.903 39.2876 762.425 41.0969 761.009 42.9062C759.829 44.0862 759.239 45.3056 759.239 46.5642V47.0362C759.239 48.2949 759.829 49.5142 761.009 50.6942C762.425 52.5036 764.903 54.3129 768.443 56.1222C772.062 57.9316 776.428 59.3869 781.541 60.4882C786.733 61.5896 792.24 62.1402 798.061 62.1402Z" fill="black" style="fill:black;fill-opacity:1;"/>
<path d="M859.38 28.2742L941.98 58.2462V26.7402H946.7V65.3262L864.1 35.3542V66.8602H859.38V28.2742Z" fill="black" style="fill:black;fill-opacity:1;"/>
</g>
<defs>
<clipPath id="clip0_724_16767">
<rect width="1315" height="94" fill="white" style="fill:white;fill-opacity:1;"/>
</clipPath>
</defs>
</svg>
