<svg width="1315" height="94" viewBox="0 0 1315 94" fill="none" xmlns="http://www.w3.org/2000/svg">
<g clip-path="url(#clip0_724_16764)">
<path d="M0.078125 26.7402H76.1881C79.3348 26.7402 81.9701 27.8416 84.0941 30.0442C86.2968 32.1682 87.3981 34.8036 87.3981 37.9502C87.3981 41.0969 86.2968 43.7716 84.0941 45.9742C81.9701 48.0982 79.3348 49.1602 76.1881 49.1602H4.79812V66.8602H0.078125V26.7402ZM76.1881 44.4402C77.9975 44.4402 79.5315 43.8109 80.7901 42.5522C82.0488 41.2149 82.6781 39.6809 82.6781 37.9502C82.6781 36.1409 82.0488 34.6069 80.7901 33.3482C79.5315 32.0896 77.9975 31.4602 76.1881 31.4602H4.79812V44.4402H76.1881Z" fill="black" style="fill:black;fill-opacity:1;"/>
<path d="M148.717 66.8602C140.771 66.8602 133.455 65.9162 126.769 64.0282C120.082 62.1402 114.772 59.6622 110.839 56.5942C106.984 53.4476 105.057 50.1829 105.057 46.8002C105.057 43.4176 106.984 40.1922 110.839 37.1242C114.772 33.9776 120.082 31.4602 126.769 29.5722C133.455 27.6842 140.771 26.7402 148.717 26.7402C156.662 26.7402 163.978 27.6842 170.665 29.5722C177.351 31.4602 182.622 33.9776 186.477 37.1242C190.41 40.1922 192.377 43.4176 192.377 46.8002C192.377 50.1829 190.41 53.4476 186.477 56.5942C182.622 59.6622 177.351 62.1402 170.665 64.0282C163.978 65.9162 156.662 66.8602 148.717 66.8602ZM148.717 62.1402C154.538 62.1402 160.005 61.5896 165.119 60.4882C170.311 59.3869 174.716 57.9316 178.335 56.1222C181.875 54.3129 184.353 52.5036 185.769 50.6942C186.949 49.5142 187.539 48.2949 187.539 47.0362V46.5642C187.539 45.3056 186.949 44.0862 185.769 42.9062C184.353 41.0969 181.875 39.2876 178.335 37.4782C174.716 35.6689 170.311 34.2136 165.119 33.1122C160.005 32.0109 154.538 31.4602 148.717 31.4602C142.895 31.4602 137.389 32.0109 132.197 33.1122C127.083 34.2136 122.717 35.6689 119.099 37.4782C115.559 39.2876 113.081 41.0969 111.665 42.9062C110.485 44.0862 109.895 45.3056 109.895 46.5642V47.0362C109.895 48.2949 110.485 49.5142 111.665 50.6942C113.081 52.5036 115.559 54.3129 119.099 56.1222C122.717 57.9316 127.083 59.3869 132.197 60.4882C137.389 61.5896 142.895 62.1402 148.717 62.1402Z" fill="black" style="fill:black;fill-opacity:1;"/>
<path d="M210.035 26.7402H286.145C289.292 26.7402 291.927 27.8416 294.051 30.0442C296.254 32.1682 297.355 34.8036 297.355 37.9502C297.355 41.0969 296.254 43.7716 294.051 45.9742C291.927 48.0982 289.292 49.1602 286.145 49.1602H274.699L292.399 66.8602H285.673L267.973 49.1602H214.755V66.8602H210.035V26.7402ZM286.145 44.4402C287.955 44.4402 289.488 43.8109 290.747 42.5522C292.006 41.2149 292.635 39.6809 292.635 37.9502C292.635 36.1409 292.006 34.6069 290.747 33.3482C289.488 32.0896 287.955 31.4602 286.145 31.4602H214.755V44.4402H286.145Z" fill="black" style="fill:black;fill-opacity:1;"/>
<path d="M352.741 31.4602H311.441V26.7402H398.761V31.4602H357.461V66.8602H352.741V31.4602Z" fill="black" style="fill:black;fill-opacity:1;"/>
<path d="M416.42 26.7402H503.74V31.4602H421.14V44.4402H456.54V49.1602H421.14V66.8602H416.42V26.7402Z" fill="black" style="fill:black;fill-opacity:1;"/>
<path d="M553.305 66.8602C545.359 66.8602 538.043 65.9162 531.357 64.0282C524.67 62.1402 519.36 59.6622 515.427 56.5942C511.572 53.4476 509.645 50.1829 509.645 46.8002C509.645 43.4176 511.572 40.1922 515.427 37.1242C519.36 33.9776 524.67 31.4602 531.357 29.5722C538.043 27.6842 545.359 26.7402 553.305 26.7402C561.25 26.7402 568.566 27.6842 575.253 29.5722C581.939 31.4602 587.21 33.9776 591.065 37.1242C594.998 40.1922 596.965 43.4176 596.965 46.8002C596.965 50.1829 594.998 53.4476 591.065 56.5942C587.21 59.6622 581.939 62.1402 575.253 64.0282C568.566 65.9162 561.25 66.8602 553.305 66.8602ZM553.305 62.1402C559.126 62.1402 564.593 61.5896 569.707 60.4882C574.899 59.3869 579.304 57.9316 582.923 56.1222C586.463 54.3129 588.941 52.5036 590.357 50.6942C591.537 49.5142 592.127 48.2949 592.127 47.0362V46.5642C592.127 45.3056 591.537 44.0862 590.357 42.9062C588.941 41.0969 586.463 39.2876 582.923 37.4782C579.304 35.6689 574.899 34.2136 569.707 33.1122C564.593 32.0109 559.126 31.4602 553.305 31.4602C547.483 31.4602 541.977 32.0109 536.785 33.1122C531.671 34.2136 527.305 35.6689 523.687 37.4782C520.147 39.2876 517.669 41.0969 516.253 42.9062C515.073 44.0862 514.483 45.3056 514.483 46.5642V47.0362C514.483 48.2949 515.073 49.5142 516.253 50.6942C517.669 52.5036 520.147 54.3129 523.687 56.1222C527.305 57.9316 531.671 59.3869 536.785 60.4882C541.977 61.5896 547.483 62.1402 553.305 62.1402Z" fill="black" style="fill:black;fill-opacity:1;"/>
<path d="M614.623 26.7402H619.343V62.1402H701.943V66.8602H614.623V26.7402Z" fill="black" style="fill:black;fill-opacity:1;"/>
<path d="M723.142 26.7402H727.862V66.8602H723.142V26.7402Z" fill="black" style="fill:black;fill-opacity:1;"/>
<path d="M789.189 66.8602C781.244 66.8602 773.928 65.9162 767.241 64.0282C760.555 62.1402 755.245 59.6622 751.311 56.5942C747.457 53.4476 745.529 50.1829 745.529 46.8002C745.529 43.4176 747.457 40.1922 751.311 37.1242C755.245 33.9776 760.555 31.4602 767.241 29.5722C773.928 27.6842 781.244 26.7402 789.189 26.7402C797.135 26.7402 804.451 27.6842 811.137 29.5722C817.824 31.4602 823.095 33.9776 826.949 37.1242C830.883 40.1922 832.849 43.4176 832.849 46.8002C832.849 50.1829 830.883 53.4476 826.949 56.5942C823.095 59.6622 817.824 62.1402 811.137 64.0282C804.451 65.9162 797.135 66.8602 789.189 66.8602ZM789.189 62.1402C795.011 62.1402 800.478 61.5896 805.591 60.4882C810.783 59.3869 815.189 57.9316 818.807 56.1222C822.347 54.3129 824.825 52.5036 826.241 50.6942C827.421 49.5142 828.011 48.2949 828.011 47.0362V46.5642C828.011 45.3056 827.421 44.0862 826.241 42.9062C824.825 41.0969 822.347 39.2876 818.807 37.4782C815.189 35.6689 810.783 34.2136 805.591 33.1122C800.478 32.0109 795.011 31.4602 789.189 31.4602C783.368 31.4602 777.861 32.0109 772.669 33.1122C767.556 34.2136 763.19 35.6689 759.571 37.4782C756.031 39.2876 753.553 41.0969 752.137 42.9062C750.957 44.0862 750.367 45.3056 750.367 46.5642V47.0362C750.367 48.2949 750.957 49.5142 752.137 50.6942C753.553 52.5036 756.031 54.3129 759.571 56.1222C763.19 57.9316 767.556 59.3869 772.669 60.4882C777.861 61.5896 783.368 62.1402 789.189 62.1402Z" fill="black" style="fill:black;fill-opacity:1;"/>
</g>
<defs>
<clipPath id="clip0_724_16764">
<rect width="1315" height="94" fill="white" style="fill:white;fill-opacity:1;"/>
</clipPath>
</defs>
</svg>
