<svg width="1315" height="94" viewBox="0 0 1315 94" fill="none" xmlns="http://www.w3.org/2000/svg">
<g clip-path="url(#clip0_724_16761)">
<path d="M0.0351562 26.7402H6.76116L38.7392 58.7182L70.7172 26.7402H77.4432L38.7392 65.4442L0.0351562 26.7402Z" fill="black" style="fill:black;fill-opacity:1;"/>
<path d="M96.5684 26.7402H101.288V66.8602H96.5684V26.7402Z" fill="black" style="fill:black;fill-opacity:1;"/>
<path d="M160.256 31.4602H118.956V26.7402H206.276V31.4602H164.976V66.8602H160.256V31.4602Z" fill="black" style="fill:black;fill-opacity:1;"/>
<path d="M243.972 28.1562L282.676 66.8602H275.95L264.15 55.0602H223.794L211.994 66.8602H205.268L243.972 28.1562ZM259.43 50.3402L243.972 34.8822L228.514 50.3402H259.43Z" fill="black" style="fill:black;fill-opacity:1;"/>
<path d="M301.833 26.7402H306.553V62.1402H389.153V66.8602H301.833V26.7402Z" fill="black" style="fill:black;fill-opacity:1;"/>
<path d="M410.352 26.7402H415.072V66.8602H410.352V26.7402Z" fill="black" style="fill:black;fill-opacity:1;"/>
<path d="M436.279 26.7402H440.999V66.8602H436.279V26.7402Z" fill="black" style="fill:black;fill-opacity:1;"/>
<path d="M548.421 66.8602C540.947 66.8602 533.985 65.0902 527.535 61.5502C521.084 58.0102 515.813 53.1722 511.723 47.0362C507.711 40.9002 505.429 34.1349 504.879 26.7402H509.599C510.149 33.2696 512.234 39.2482 515.853 44.6762C519.471 50.0256 524.113 54.2736 529.777 57.4202C535.519 60.5669 541.734 62.1402 548.421 62.1402C555.107 62.1402 561.283 60.5669 566.947 57.4202C572.689 54.2736 577.37 50.0256 580.989 44.6762C584.607 39.2482 586.692 33.2696 587.243 26.7402H591.963C591.412 34.1349 589.091 40.9002 585.001 47.0362C580.989 53.1722 575.757 58.0102 569.307 61.5502C562.856 65.0902 555.894 66.8602 548.421 66.8602Z" fill="black" style="fill:black;fill-opacity:1;"/>
<path d="M609.739 26.7402H676.999C680.618 26.7402 683.961 27.6449 687.029 29.4542C690.097 31.2636 692.536 33.7022 694.345 36.7702C696.155 39.8382 697.059 43.1816 697.059 46.8002C697.059 50.4189 696.155 53.7622 694.345 56.8302C692.536 59.8982 690.097 62.3369 687.029 64.1462C683.961 65.9556 680.618 66.8602 676.999 66.8602H609.739V26.7402ZM676.999 62.1402C679.753 62.1402 682.309 61.4716 684.669 60.1342C687.029 58.7182 688.878 56.8302 690.215 54.4702C691.631 52.1102 692.339 49.5536 692.339 46.8002C692.339 44.0469 691.631 41.4902 690.215 39.1302C688.878 36.7702 687.029 34.9216 684.669 33.5842C682.309 32.1682 679.753 31.4602 676.999 31.4602H614.459V62.1402H676.999Z" fill="black" style="fill:black;fill-opacity:1;"/>
<path d="M758.378 66.8602C750.432 66.8602 743.116 65.9162 736.43 64.0282C729.743 62.1402 724.433 59.6622 720.5 56.5942C716.645 53.4476 714.718 50.1829 714.718 46.8002C714.718 43.4176 716.645 40.1922 720.5 37.1242C724.433 33.9776 729.743 31.4602 736.43 29.5722C743.116 27.6842 750.432 26.7402 758.378 26.7402C766.323 26.7402 773.639 27.6842 780.326 29.5722C787.012 31.4602 792.283 33.9776 796.138 37.1242C800.071 40.1922 802.038 43.4176 802.038 46.8002C802.038 50.1829 800.071 53.4476 796.138 56.5942C792.283 59.6622 787.012 62.1402 780.326 64.0282C773.639 65.9162 766.323 66.8602 758.378 66.8602ZM758.378 62.1402C764.199 62.1402 769.667 61.5896 774.78 60.4882C779.972 59.3869 784.377 57.9316 787.996 56.1222C791.536 54.3129 794.014 52.5036 795.43 50.6942C796.61 49.5142 797.2 48.2949 797.2 47.0362V46.5642C797.2 45.3056 796.61 44.0862 795.43 42.9062C794.014 41.0969 791.536 39.2876 787.996 37.4782C784.377 35.6689 779.972 34.2136 774.78 33.1122C769.667 32.0109 764.199 31.4602 758.378 31.4602C752.556 31.4602 747.05 32.0109 741.858 33.1122C736.745 34.2136 732.378 35.6689 728.76 37.4782C725.22 39.2876 722.742 41.0969 721.326 42.9062C720.146 44.0862 719.556 45.3056 719.556 46.5642V47.0362C719.556 48.2949 720.146 49.5142 721.326 50.6942C722.742 52.5036 725.22 54.3129 728.76 56.1222C732.378 57.9316 736.745 59.3869 741.858 60.4882C747.05 61.5896 752.556 62.1402 758.378 62.1402Z" fill="black" style="fill:black;fill-opacity:1;"/>
<path d="M814.051 26.7402H820.777L852.755 58.7182L884.733 26.7402H891.459L852.755 65.4442L814.051 26.7402Z" fill="black" style="fill:black;fill-opacity:1;"/>
<path d="M907.044 26.7402H994.364V31.4602H911.764V44.4402H994.364V49.1602H911.764V62.1402H994.364V66.8602H907.044V26.7402Z" fill="black" style="fill:black;fill-opacity:1;"/>
<path d="M1012.02 28.2742L1094.62 58.2462V26.7402H1099.34V65.3262L1016.74 35.3542V66.8602H1012.02V28.2742Z" fill="black" style="fill:black;fill-opacity:1;"/>
<path d="M1117 26.7402H1121.72V42.9062L1204.32 27.4482V32.0502L1125.61 46.8002L1204.32 61.5502V66.1522L1121.72 50.6942V66.8602H1117V26.7402Z" fill="black" style="fill:black;fill-opacity:1;"/>
<path d="M1259.76 66.8602C1251.82 66.8602 1244.5 65.9162 1237.81 64.0282C1231.13 62.1402 1225.82 59.6622 1221.88 56.5942C1218.03 53.4476 1216.1 50.1829 1216.1 46.8002C1216.1 43.4176 1218.03 40.1922 1221.88 37.1242C1225.82 33.9776 1231.13 31.4602 1237.81 29.5722C1244.5 27.6842 1251.82 26.7402 1259.76 26.7402C1267.71 26.7402 1275.02 27.6842 1281.71 29.5722C1288.4 31.4602 1293.67 33.9776 1297.52 37.1242C1301.46 40.1922 1303.42 43.4176 1303.42 46.8002C1303.42 50.1829 1301.46 53.4476 1297.52 56.5942C1293.67 59.6622 1288.4 62.1402 1281.71 64.0282C1275.02 65.9162 1267.71 66.8602 1259.76 66.8602ZM1259.76 62.1402C1265.58 62.1402 1271.05 61.5896 1276.16 60.4882C1281.36 59.3869 1285.76 57.9316 1289.38 56.1222C1292.92 54.3129 1295.4 52.5036 1296.81 50.6942C1297.99 49.5142 1298.58 48.2949 1298.58 47.0362V46.5642C1298.58 45.3056 1297.99 44.0862 1296.81 42.9062C1295.4 41.0969 1292.92 39.2876 1289.38 37.4782C1285.76 35.6689 1281.36 34.2136 1276.16 33.1122C1271.05 32.0109 1265.58 31.4602 1259.76 31.4602C1253.94 31.4602 1248.43 32.0109 1243.24 33.1122C1238.13 34.2136 1233.76 35.6689 1230.14 37.4782C1226.6 39.2876 1224.13 41.0969 1222.71 42.9062C1221.53 44.0862 1220.94 45.3056 1220.94 46.5642V47.0362C1220.94 48.2949 1221.53 49.5142 1222.71 50.6942C1224.13 52.5036 1226.6 54.3129 1230.14 56.1222C1233.76 57.9316 1238.13 59.3869 1243.24 60.4882C1248.43 61.5896 1253.94 62.1402 1259.76 62.1402Z" fill="black" style="fill:black;fill-opacity:1;"/>
</g>
<defs>
<clipPath id="clip0_724_16761">
<rect width="1315" height="94" fill="white" style="fill:white;fill-opacity:1;"/>
</clipPath>
</defs>
</svg>
