<svg width="93" height="8" viewBox="0 0 93 8" fill="none" xmlns="http://www.w3.org/2000/svg">
<path d="M7.46014 0.723961L14.6761 7.93996H13.4221L11.2221 5.73996H3.69814L1.49814 7.93996H0.244141L7.46014 0.723961ZM10.3421 4.85996L7.46014 1.97796L4.57814 4.85996H10.3421Z" fill="#0D0D0D" style="fill:#0D0D0D;fill:color(display-p3 0.0510 0.0510 0.0510);fill-opacity:1;"/>
<path d="M18.2479 0.459961H32.4379C33.0245 0.459961 33.5159 0.665294 33.9119 1.07596C34.3225 1.47196 34.5279 1.96329 34.5279 2.54996C34.5279 3.19529 34.2639 3.74529 33.7359 4.19996C34.2639 4.65463 34.5279 5.20463 34.5279 5.84996C34.5279 6.43663 34.3225 6.93529 33.9119 7.34596C33.5159 7.74196 33.0245 7.93996 32.4379 7.93996H18.2479V0.459961ZM32.4379 7.05996C32.7752 7.05996 33.0612 6.94263 33.2959 6.70796C33.5305 6.45863 33.6479 6.17263 33.6479 5.84996C33.6479 5.51263 33.5305 5.22663 33.2959 4.99196C33.0612 4.75729 32.7752 4.63996 32.4379 4.63996H19.1279V7.05996H32.4379ZM32.4379 3.75996C32.7752 3.75996 33.0612 3.64263 33.2959 3.40796C33.5305 3.15863 33.6479 2.87263 33.6479 2.54996C33.6479 2.21263 33.5305 1.92663 33.2959 1.69196C33.0612 1.45729 32.7752 1.33996 32.4379 1.33996H19.1279V3.75996H32.4379Z" fill="#0D0D0D" style="fill:#0D0D0D;fill:color(display-p3 0.0510 0.0510 0.0510);fill-opacity:1;"/>
<path d="M45.9601 7.93996C44.4788 7.93996 43.1148 7.76396 41.8681 7.41196C40.6215 7.05996 39.6315 6.59796 38.8981 6.02596C38.1795 5.43929 37.8201 4.83063 37.8201 4.19996C37.8201 3.5693 38.1795 2.96796 38.8981 2.39596C39.6315 1.80929 40.6215 1.33996 41.8681 0.987962C43.1148 0.635961 44.4788 0.459961 45.9601 0.459961C47.4415 0.459961 48.8055 0.635961 50.0521 0.987962C51.2988 1.33996 52.2815 1.80929 53.0001 2.39596C53.7335 2.96796 54.1001 3.5693 54.1001 4.19996C54.1001 4.83063 53.7335 5.43929 53.0001 6.02596C52.2815 6.59796 51.2988 7.05996 50.0521 7.41196C48.8055 7.76396 47.4415 7.93996 45.9601 7.93996ZM45.9601 7.05996C47.0455 7.05996 48.0648 6.9573 49.0181 6.75196C49.9861 6.54663 50.8075 6.2753 51.4821 5.93796C52.1421 5.60063 52.6041 5.2633 52.8681 4.92596C53.0881 4.70596 53.1981 4.47863 53.1981 4.24396V4.15596C53.1981 3.9213 53.0881 3.69396 52.8681 3.47396C52.6041 3.13663 52.1421 2.79929 51.4821 2.46196C50.8075 2.12463 49.9861 1.85329 49.0181 1.64796C48.0648 1.44263 47.0455 1.33996 45.9601 1.33996C44.8748 1.33996 43.8481 1.44263 42.8801 1.64796C41.9268 1.85329 41.1128 2.12463 40.4381 2.46196C39.7781 2.79929 39.3161 3.13663 39.0521 3.47396C38.8321 3.69396 38.7221 3.9213 38.7221 4.15596V4.24396C38.7221 4.47863 38.8321 4.70596 39.0521 4.92596C39.3161 5.2633 39.7781 5.60063 40.4381 5.93796C41.1128 6.2753 41.9268 6.54663 42.8801 6.75196C43.8481 6.9573 44.8748 7.05996 45.9601 7.05996Z" fill="#0D0D0D" style="fill:#0D0D0D;fill:color(display-p3 0.0510 0.0510 0.0510);fill-opacity:1;"/>
<path d="M64.4367 7.93996C63.0434 7.93996 61.7454 7.60996 60.5427 6.94996C59.34 6.28996 58.3574 5.38796 57.5947 4.24396C56.8467 3.09996 56.4214 1.83863 56.3187 0.459961H57.1987C57.3014 1.67729 57.69 2.79196 58.3647 3.80396C59.0394 4.80129 59.9047 5.5933 60.9607 6.17996C62.0314 6.76663 63.19 7.05996 64.4367 7.05996C65.6834 7.05996 66.8347 6.76663 67.8907 6.17996C68.9614 5.5933 69.834 4.80129 70.5087 3.80396C71.1834 2.79196 71.572 1.67729 71.6747 0.459961H72.5547C72.452 1.83863 72.0194 3.09996 71.2567 4.24396C70.5087 5.38796 69.5334 6.28996 68.3307 6.94996C67.128 7.60996 65.83 7.93996 64.4367 7.93996Z" fill="#0D0D0D" style="fill:#0D0D0D;fill:color(display-p3 0.0510 0.0510 0.0510);fill-opacity:1;"/>
<path d="M83.569 1.33996H75.869V0.459961H92.149V1.33996H84.449V7.93996H83.569V1.33996Z" fill="#0D0D0D" style="fill:#0D0D0D;fill:color(display-p3 0.0510 0.0510 0.0510);fill-opacity:1;"/>
</svg>
