<svg width="74" height="8" viewBox="0 0 74 8" fill="none" xmlns="http://www.w3.org/2000/svg">
<path d="M0.320312 0.459961H14.5103C15.097 0.459961 15.5883 0.665294 15.9843 1.07596C16.395 1.47196 16.6003 1.96329 16.6003 2.54996C16.6003 3.19529 16.3363 3.74529 15.8083 4.19996C16.3363 4.65463 16.6003 5.20463 16.6003 5.84996C16.6003 6.43663 16.395 6.93529 15.9843 7.34596C15.5883 7.74196 15.097 7.93996 14.5103 7.93996H0.320312V0.459961ZM14.5103 7.05996C14.8476 7.05996 15.1336 6.94263 15.3683 6.70796C15.603 6.45863 15.7203 6.17263 15.7203 5.84996C15.7203 5.51263 15.603 5.22663 15.3683 4.99196C15.1336 4.75729 14.8476 4.63996 14.5103 4.63996H1.20031V7.05996H14.5103ZM14.5103 3.75996C14.8476 3.75996 15.1336 3.64263 15.3683 3.40796C15.603 3.15863 15.7203 2.87263 15.7203 2.54996C15.7203 2.21263 15.603 1.92663 15.3683 1.69196C15.1336 1.45729 14.8476 1.33996 14.5103 1.33996H1.20031V3.75996H14.5103Z" fill="#0D0D0D" style="fill:#0D0D0D;fill:color(display-p3 0.0510 0.0510 0.0510);fill-opacity:1;"/>
<path d="M19.8926 0.459961H20.7726V7.05996H36.1726V7.93996H19.8926V0.459961Z" fill="#0D0D0D" style="fill:#0D0D0D;fill:color(display-p3 0.0510 0.0510 0.0510);fill-opacity:1;"/>
<path d="M46.2943 7.93996C44.813 7.93996 43.449 7.76396 42.2023 7.41196C40.9556 7.05996 39.9656 6.59796 39.2323 6.02596C38.5136 5.43929 38.1543 4.83063 38.1543 4.19996C38.1543 3.5693 38.5136 2.96796 39.2323 2.39596C39.9656 1.80929 40.9556 1.33996 42.2023 0.987962C43.449 0.635961 44.813 0.459961 46.2943 0.459961C47.7756 0.459961 49.1396 0.635961 50.3863 0.987962C51.633 1.33996 52.6156 1.80929 53.3343 2.39596C54.0676 2.96796 54.4343 3.5693 54.4343 4.19996C54.4343 4.83063 54.0676 5.43929 53.3343 6.02596C52.6156 6.59796 51.633 7.05996 50.3863 7.41196C49.1396 7.76396 47.7756 7.93996 46.2943 7.93996ZM46.2943 7.05996C47.3796 7.05996 48.399 6.9573 49.3523 6.75196C50.3203 6.54663 51.1416 6.2753 51.8163 5.93796C52.4763 5.60063 52.9383 5.2633 53.2023 4.92596C53.4223 4.70596 53.5323 4.47863 53.5323 4.24396V4.15596C53.5323 3.9213 53.4223 3.69396 53.2023 3.47396C52.9383 3.13663 52.4763 2.79929 51.8163 2.46196C51.1416 2.12463 50.3203 1.85329 49.3523 1.64796C48.399 1.44263 47.3796 1.33996 46.2943 1.33996C45.209 1.33996 44.1823 1.44263 43.2143 1.64796C42.261 1.85329 41.447 2.12463 40.7723 2.46196C40.1123 2.79929 39.6503 3.13663 39.3863 3.47396C39.1663 3.69396 39.0563 3.9213 39.0563 4.15596V4.24396C39.0563 4.47863 39.1663 4.70596 39.3863 4.92596C39.6503 5.2633 40.1123 5.60063 40.7723 5.93796C41.447 6.2753 42.261 6.54663 43.2143 6.75196C44.1823 6.9573 45.209 7.05996 46.2943 7.05996Z" fill="#0D0D0D" style="fill:#0D0D0D;fill:color(display-p3 0.0510 0.0510 0.0510);fill-opacity:1;"/>
<path d="M65.8666 7.93996C64.3852 7.93996 63.0212 7.76396 61.7746 7.41196C60.5279 7.05996 59.5379 6.59796 58.8046 6.02596C58.0859 5.43929 57.7266 4.83063 57.7266 4.19996C57.7266 3.5693 58.0859 2.96796 58.8046 2.39596C59.5379 1.80929 60.5279 1.33996 61.7746 0.987962C63.0212 0.635961 64.3852 0.459961 65.8666 0.459961H67.4066V1.33996H65.8666C64.7812 1.33996 63.7546 1.44263 62.7866 1.64796C61.8332 1.85329 61.0192 2.12463 60.3446 2.46196C59.6846 2.79929 59.2226 3.13663 58.9586 3.47396C58.7386 3.69396 58.6286 3.9213 58.6286 4.15596V4.24396C58.6286 4.47863 58.7386 4.70596 58.9586 4.92596C59.2226 5.2633 59.6846 5.60063 60.3446 5.93796C61.0192 6.2753 61.8332 6.54663 62.7866 6.75196C63.7546 6.9573 64.7812 7.05996 65.8666 7.05996C67.0839 7.05996 68.3672 6.8913 69.7166 6.55396C71.0806 6.20196 72.1806 5.56396 73.0166 4.63996H66.5266V3.75996H74.0066V4.19996C74.0066 4.83063 73.6399 5.43929 72.9066 6.02596C72.1879 6.59796 71.2052 7.05996 69.9586 7.41196C68.7119 7.76396 67.3479 7.93996 65.8666 7.93996Z" fill="#0D0D0D" style="fill:#0D0D0D;fill:color(display-p3 0.0510 0.0510 0.0510);fill-opacity:1;"/>
</svg>
