<svg width="243" height="8" viewBox="0 0 243 8" fill="none" xmlns="http://www.w3.org/2000/svg">
<path d="M3.74 7.48C3.06533 7.48 2.442 7.31133 1.87 6.974C1.298 6.63667 0.843333 6.182 0.506 5.61C0.168667 5.038 0 4.41467 0 3.74C0 3.06533 0.168667 2.442 0.506 1.87C0.843333 1.298 1.298 0.843333 1.87 0.506C2.442 0.168667 3.06533 0 3.74 0H16.28V0.88H3.74C3.22667 0.88 2.75 1.012 2.31 1.276C1.87 1.52533 1.518 1.87 1.254 2.31C1.00467 2.75 0.88 3.22667 0.88 3.74C0.88 4.25333 1.00467 4.73 1.254 5.17C1.518 5.61 1.87 5.962 2.31 6.226C2.75 6.47533 3.22667 6.6 3.74 6.6H16.28V7.48H3.74Z" fill="#0D0D0D" style="fill:#0D0D0D;fill:color(display-p3 0.0510 0.0510 0.0510);fill-opacity:1;"/>
<path d="M27.7123 7.48C26.2309 7.48 24.8669 7.304 23.6203 6.952C22.3736 6.6 21.3836 6.138 20.6503 5.566C19.9316 4.97933 19.5723 4.37067 19.5723 3.74C19.5723 3.10933 19.9316 2.508 20.6503 1.936C21.3836 1.34933 22.3736 0.880001 23.6203 0.528001C24.8669 0.176 26.2309 0 27.7123 0C29.1936 0 30.5576 0.176 31.8043 0.528001C33.0509 0.880001 34.0336 1.34933 34.7523 1.936C35.4856 2.508 35.8523 3.10933 35.8523 3.74C35.8523 4.37067 35.4856 4.97933 34.7523 5.566C34.0336 6.138 33.0509 6.6 31.8043 6.952C30.5576 7.304 29.1936 7.48 27.7123 7.48ZM27.7123 6.6C28.7976 6.6 29.8169 6.49733 30.7703 6.292C31.7383 6.08667 32.5596 5.81533 33.2343 5.478C33.8943 5.14067 34.3563 4.80333 34.6203 4.466C34.8403 4.246 34.9503 4.01867 34.9503 3.784V3.696C34.9503 3.46133 34.8403 3.234 34.6203 3.014C34.3563 2.67667 33.8943 2.33933 33.2343 2.002C32.5596 1.66467 31.7383 1.39333 30.7703 1.188C29.8169 0.982667 28.7976 0.88 27.7123 0.88C26.6269 0.88 25.6003 0.982667 24.6323 1.188C23.6789 1.39333 22.8649 1.66467 22.1903 2.002C21.5303 2.33933 21.0683 2.67667 20.8043 3.014C20.5843 3.234 20.4743 3.46133 20.4743 3.696V3.784C20.4743 4.01867 20.5843 4.246 20.8043 4.466C21.0683 4.80333 21.5303 5.14067 22.1903 5.478C22.8649 5.81533 23.6789 6.08667 24.6323 6.292C25.6003 6.49733 26.6269 6.6 27.7123 6.6Z" fill="#0D0D0D" style="fill:#0D0D0D;fill:color(display-p3 0.0510 0.0510 0.0510);fill-opacity:1;"/>
<path d="M39.1445 0.286L54.5445 5.874V0H55.4245V7.194L40.0245 1.606V7.48H39.1445V0.286Z" fill="#0D0D0D" style="fill:#0D0D0D;fill:color(display-p3 0.0510 0.0510 0.0510);fill-opacity:1;"/>
<path d="M66.4168 0.88H58.7168V0H74.9968V0.88H67.2968V7.48H66.4168V0.88Z" fill="#0D0D0D" style="fill:#0D0D0D;fill:color(display-p3 0.0510 0.0510 0.0510);fill-opacity:1;"/>
<path d="M82.0248 0.264001L89.2408 7.48H87.9868L85.7868 5.28H78.2628L76.0628 7.48H74.8088L82.0248 0.264001ZM84.9068 4.4L82.0248 1.518L79.1428 4.4H84.9068Z" fill="#0D0D0D" style="fill:#0D0D0D;fill:color(display-p3 0.0510 0.0510 0.0510);fill-opacity:1;"/>
<path d="M95.242 7.48C94.5673 7.48 93.944 7.31133 93.372 6.974C92.8 6.63667 92.3453 6.182 92.0079 5.61C91.6706 5.038 91.502 4.41467 91.502 3.74C91.502 3.06533 91.6706 2.442 92.0079 1.87C92.3453 1.298 92.8 0.843333 93.372 0.506C93.944 0.168667 94.5673 0 95.242 0H107.782V0.88H95.242C94.7286 0.88 94.252 1.012 93.812 1.276C93.372 1.52533 93.02 1.87 92.756 2.31C92.5066 2.75 92.382 3.22667 92.382 3.74C92.382 4.25333 92.5066 4.73 92.756 5.17C93.02 5.61 93.372 5.962 93.812 6.226C94.252 6.47533 94.7286 6.6 95.242 6.6H107.782V7.48H95.242Z" fill="#0D0D0D" style="fill:#0D0D0D;fill:color(display-p3 0.0510 0.0510 0.0510);fill-opacity:1;"/>
<path d="M118.774 0.88H111.074V0H127.354V0.88H119.654V7.48H118.774V0.88Z" fill="#0D0D0D" style="fill:#0D0D0D;fill:color(display-p3 0.0510 0.0510 0.0510);fill-opacity:1;"/>
</svg>
