<svg width="128" height="8" viewBox="0 0 128 8" fill="none" xmlns="http://www.w3.org/2000/svg">
<path d="M4.06031 7.93996C3.38565 7.93996 2.76231 7.7713 2.19031 7.43396C1.61831 7.09663 1.16365 6.64196 0.826313 6.06996C0.488979 5.49796 0.320312 4.87463 0.320312 4.19996C0.320312 3.5253 0.488979 2.90196 0.826313 2.32996C1.16365 1.75796 1.61831 1.30329 2.19031 0.965961C2.76231 0.628628 3.38565 0.459961 4.06031 0.459961H16.6003V1.33996H4.06031C3.54698 1.33996 3.07031 1.47196 2.63031 1.73596C2.19031 1.98529 1.83831 2.32996 1.57431 2.76996C1.32498 3.20996 1.20031 3.68663 1.20031 4.19996C1.20031 4.7133 1.32498 5.18996 1.57431 5.62996C1.83831 6.06996 2.19031 6.42196 2.63031 6.68596C3.07031 6.9353 3.54698 7.05996 4.06031 7.05996H16.6003V7.93996H4.06031Z" fill="#0D0D0D" style="fill:#0D0D0D;fill:color(display-p3 0.0510 0.0510 0.0510);fill-opacity:1;"/>
<path d="M28.0326 7.93996C26.5512 7.93996 25.1872 7.76396 23.9406 7.41196C22.6939 7.05996 21.7039 6.59796 20.9706 6.02596C20.2519 5.43929 19.8926 4.83063 19.8926 4.19996C19.8926 3.5693 20.2519 2.96796 20.9706 2.39596C21.7039 1.80929 22.6939 1.33996 23.9406 0.987962C25.1872 0.635961 26.5512 0.459961 28.0326 0.459961C29.5139 0.459961 30.8779 0.635961 32.1246 0.987962C33.3712 1.33996 34.3539 1.80929 35.0726 2.39596C35.8059 2.96796 36.1726 3.5693 36.1726 4.19996C36.1726 4.83063 35.8059 5.43929 35.0726 6.02596C34.3539 6.59796 33.3712 7.05996 32.1246 7.41196C30.8779 7.76396 29.5139 7.93996 28.0326 7.93996ZM28.0326 7.05996C29.1179 7.05996 30.1372 6.9573 31.0906 6.75196C32.0586 6.54663 32.8799 6.2753 33.5546 5.93796C34.2146 5.60063 34.6766 5.2633 34.9406 4.92596C35.1606 4.70596 35.2706 4.47863 35.2706 4.24396V4.15596C35.2706 3.9213 35.1606 3.69396 34.9406 3.47396C34.6766 3.13663 34.2146 2.79929 33.5546 2.46196C32.8799 2.12463 32.0586 1.85329 31.0906 1.64796C30.1372 1.44263 29.1179 1.33996 28.0326 1.33996C26.9472 1.33996 25.9206 1.44263 24.9526 1.64796C23.9992 1.85329 23.1852 2.12463 22.5106 2.46196C21.8506 2.79929 21.3886 3.13663 21.1246 3.47396C20.9046 3.69396 20.7946 3.9213 20.7946 4.15596V4.24396C20.7946 4.47863 20.9046 4.70596 21.1246 4.92596C21.3886 5.2633 21.8506 5.60063 22.5106 5.93796C23.1852 6.2753 23.9992 6.54663 24.9526 6.75196C25.9206 6.9573 26.9472 7.05996 28.0326 7.05996Z" fill="#0D0D0D" style="fill:#0D0D0D;fill:color(display-p3 0.0510 0.0510 0.0510);fill-opacity:1;"/>
<path d="M39.4648 0.745961L54.8648 6.33396V0.459961H55.7448V7.65396L40.3448 2.06596V7.93996H39.4648V0.745961Z" fill="#0D0D0D" style="fill:#0D0D0D;fill:color(display-p3 0.0510 0.0510 0.0510);fill-opacity:1;"/>
<path d="M66.7371 1.33996H59.0371V0.459961H75.3171V1.33996H67.6171V7.93996H66.7371V1.33996Z" fill="#0D0D0D" style="fill:#0D0D0D;fill:color(display-p3 0.0510 0.0510 0.0510);fill-opacity:1;"/>
<path d="M82.3451 0.723961L89.5611 7.93996H88.3071L86.1071 5.73996H78.5831L76.3831 7.93996H75.1291L82.3451 0.723961ZM85.2271 4.85996L82.3451 1.97796L79.4631 4.85996H85.2271Z" fill="#0D0D0D" style="fill:#0D0D0D;fill:color(display-p3 0.0510 0.0510 0.0510);fill-opacity:1;"/>
<path d="M95.5623 7.93996C94.8876 7.93996 94.2643 7.7713 93.6923 7.43396C93.1203 7.09663 92.6656 6.64196 92.3283 6.06996C91.9909 5.49796 91.8223 4.87463 91.8223 4.19996C91.8223 3.5253 91.9909 2.90196 92.3283 2.32996C92.6656 1.75796 93.1203 1.30329 93.6923 0.965961C94.2643 0.628628 94.8876 0.459961 95.5623 0.459961H108.102V1.33996H95.5623C95.0489 1.33996 94.5723 1.47196 94.1323 1.73596C93.6923 1.98529 93.3403 2.32996 93.0763 2.76996C92.8269 3.20996 92.7023 3.68663 92.7023 4.19996C92.7023 4.7133 92.8269 5.18996 93.0763 5.62996C93.3403 6.06996 93.6923 6.42196 94.1323 6.68596C94.5723 6.9353 95.0489 7.05996 95.5623 7.05996H108.102V7.93996H95.5623Z" fill="#0D0D0D" style="fill:#0D0D0D;fill:color(display-p3 0.0510 0.0510 0.0510);fill-opacity:1;"/>
<path d="M119.095 1.33996H111.395V0.459961H127.675V1.33996H119.975V7.93996H119.095V1.33996Z" fill="#0D0D0D" style="fill:#0D0D0D;fill:color(display-p3 0.0510 0.0510 0.0510);fill-opacity:1;"/>
</svg>
