<svg width="243" height="8" viewBox="0 0 243 8" fill="none" xmlns="http://www.w3.org/2000/svg">
<path d="M0 0H0.88V7.48H0V0Z" fill="#0D0D0D" style="fill:#0D0D0D;fill:color(display-p3 0.0510 0.0510 0.0510);fill-opacity:1;"/>
<path d="M4.17398 0.286L19.574 5.874V0H20.454V7.194L5.05398 1.606V7.48H4.17398V0.286Z" fill="#0D0D0D" style="fill:#0D0D0D;fill:color(display-p3 0.0510 0.0510 0.0510);fill-opacity:1;"/>
<path d="M23.7463 0H40.0262V0.88H24.6262V3.3H31.2262V4.18H24.6262V7.48H23.7463V0Z" fill="#0D0D0D" style="fill:#0D0D0D;fill:color(display-p3 0.0510 0.0510 0.0510);fill-opacity:1;"/>
<path d="M49.2671 7.48C47.7858 7.48 46.4218 7.304 45.1751 6.952C43.9284 6.6 42.9384 6.138 42.2051 5.566C41.4864 4.97933 41.1271 4.37067 41.1271 3.74C41.1271 3.10933 41.4864 2.508 42.2051 1.936C42.9384 1.34933 43.9284 0.880001 45.1751 0.528001C46.4218 0.176 47.7858 0 49.2671 0C50.7484 0 52.1124 0.176 53.3591 0.528001C54.6058 0.880001 55.5884 1.34933 56.3071 1.936C57.0404 2.508 57.4071 3.10933 57.4071 3.74C57.4071 4.37067 57.0404 4.97933 56.3071 5.566C55.5884 6.138 54.6058 6.6 53.3591 6.952C52.1124 7.304 50.7484 7.48 49.2671 7.48ZM49.2671 6.6C50.3524 6.6 51.3718 6.49733 52.3251 6.292C53.2931 6.08667 54.1144 5.81533 54.7891 5.478C55.4491 5.14067 55.9111 4.80333 56.1751 4.466C56.3951 4.246 56.5051 4.01867 56.5051 3.784V3.696C56.5051 3.46133 56.3951 3.234 56.1751 3.014C55.9111 2.67667 55.4491 2.33933 54.7891 2.002C54.1144 1.66467 53.2931 1.39333 52.3251 1.188C51.3718 0.982667 50.3524 0.88 49.2671 0.88C48.1818 0.88 47.1551 0.982667 46.1871 1.188C45.2338 1.39333 44.4198 1.66467 43.7451 2.002C43.0851 2.33933 42.6231 2.67667 42.3591 3.014C42.1391 3.234 42.0291 3.46133 42.0291 3.696V3.784C42.0291 4.01867 42.1391 4.246 42.3591 4.466C42.6231 4.80333 43.0851 5.14067 43.7451 5.478C44.4198 5.81533 45.2338 6.08667 46.1871 6.292C47.1551 6.49733 48.1818 6.6 49.2671 6.6Z" fill="#0D0D0D" style="fill:#0D0D0D;fill:color(display-p3 0.0510 0.0510 0.0510);fill-opacity:1;"/>
<path d="M60.6994 0H74.8894C75.476 0 75.9674 0.205333 76.3634 0.616C76.774 1.012 76.9794 1.50333 76.9794 2.09C76.9794 2.67667 76.774 3.17533 76.3634 3.586C75.9674 3.982 75.476 4.18 74.8894 4.18H72.7554L76.0554 7.48H74.8014L71.5014 4.18H61.5794V7.48H60.6994V0ZM74.8894 3.3C75.2267 3.3 75.5127 3.18267 75.7474 2.948C75.982 2.69867 76.0994 2.41267 76.0994 2.09C76.0994 1.75267 75.982 1.46667 75.7474 1.232C75.5127 0.997334 75.2267 0.88 74.8894 0.88H61.5794V3.3H74.8894Z" fill="#0D0D0D" style="fill:#0D0D0D;fill:color(display-p3 0.0510 0.0510 0.0510);fill-opacity:1;"/>
<path d="M80.2716 0.616L88.4116 6.314L96.5516 0.616V7.48H95.6716V2.244L88.4116 7.326L81.1516 2.244V7.48H80.2716V0.616Z" fill="#0D0D0D" style="fill:#0D0D0D;fill:color(display-p3 0.0510 0.0510 0.0510);fill-opacity:1;"/>
<path d="M107.984 0.264001L115.2 7.48H113.946L111.746 5.28H104.222L102.022 7.48H100.768L107.984 0.264001ZM110.866 4.4L107.984 1.518L105.102 4.4H110.866Z" fill="#0D0D0D" style="fill:#0D0D0D;fill:color(display-p3 0.0510 0.0510 0.0510);fill-opacity:1;"/>
<path d="M123.829 0.88H116.129V0H132.409V0.88H124.709V7.48H123.829V0.88Z" fill="#0D0D0D" style="fill:#0D0D0D;fill:color(display-p3 0.0510 0.0510 0.0510);fill-opacity:1;"/>
<path d="M136.361 0H137.241V7.48H136.361V0Z" fill="#0D0D0D" style="fill:#0D0D0D;fill:color(display-p3 0.0510 0.0510 0.0510);fill-opacity:1;"/>
<path d="M148.675 7.48C147.194 7.48 145.83 7.304 144.583 6.952C143.337 6.6 142.347 6.138 141.613 5.566C140.895 4.97933 140.535 4.37067 140.535 3.74C140.535 3.10933 140.895 2.508 141.613 1.936C142.347 1.34933 143.337 0.880001 144.583 0.528001C145.83 0.176 147.194 0 148.675 0C150.157 0 151.521 0.176 152.767 0.528001C154.014 0.880001 154.997 1.34933 155.715 1.936C156.449 2.508 156.815 3.10933 156.815 3.74C156.815 4.37067 156.449 4.97933 155.715 5.566C154.997 6.138 154.014 6.6 152.767 6.952C151.521 7.304 150.157 7.48 148.675 7.48ZM148.675 6.6C149.761 6.6 150.78 6.49733 151.733 6.292C152.701 6.08667 153.523 5.81533 154.197 5.478C154.857 5.14067 155.319 4.80333 155.583 4.466C155.803 4.246 155.913 4.01867 155.913 3.784V3.696C155.913 3.46133 155.803 3.234 155.583 3.014C155.319 2.67667 154.857 2.33933 154.197 2.002C153.523 1.66467 152.701 1.39333 151.733 1.188C150.78 0.982667 149.761 0.88 148.675 0.88C147.59 0.88 146.563 0.982667 145.595 1.188C144.642 1.39333 143.828 1.66467 143.153 2.002C142.493 2.33933 142.031 2.67667 141.767 3.014C141.547 3.234 141.437 3.46133 141.437 3.696V3.784C141.437 4.01867 141.547 4.246 141.767 4.466C142.031 4.80333 142.493 5.14067 143.153 5.478C143.828 5.81533 144.642 6.08667 145.595 6.292C146.563 6.49733 147.59 6.6 148.675 6.6Z" fill="#0D0D0D" style="fill:#0D0D0D;fill:color(display-p3 0.0510 0.0510 0.0510);fill-opacity:1;"/>
<path d="M160.108 0.286L175.508 5.874V0H176.388V7.194L160.988 1.606V7.48H160.108V0.286Z" fill="#0D0D0D" style="fill:#0D0D0D;fill:color(display-p3 0.0510 0.0510 0.0510);fill-opacity:1;"/>
</svg>
