<svg width="59" height="8" viewBox="0 0 59 8" fill="none" xmlns="http://www.w3.org/2000/svg">
<path d="M0.980469 0.459961H1.86047V7.93996H0.980469V0.459961Z" fill="#0D0D0D" style="fill:#0D0D0D;fill:color(display-p3 0.0510 0.0510 0.0510);fill-opacity:1;"/>
<path d="M5.15445 0.745961L20.5545 6.33396V0.459961H21.4345V7.65396L6.03445 2.06596V7.93996H5.15445V0.745961Z" fill="#0D0D0D" style="fill:#0D0D0D;fill:color(display-p3 0.0510 0.0510 0.0510);fill-opacity:1;"/>
<path d="M24.7267 0.459961H41.0067V1.33996H25.6067V3.75996H32.2067V4.63996H25.6067V7.93996H24.7267V0.459961Z" fill="#0D0D0D" style="fill:#0D0D0D;fill:color(display-p3 0.0510 0.0510 0.0510);fill-opacity:1;"/>
<path d="M50.2476 7.93996C48.7662 7.93996 47.4022 7.76396 46.1556 7.41196C44.9089 7.05996 43.9189 6.59796 43.1856 6.02596C42.4669 5.43929 42.1076 4.83063 42.1076 4.19996C42.1076 3.5693 42.4669 2.96796 43.1856 2.39596C43.9189 1.80929 44.9089 1.33996 46.1556 0.987962C47.4022 0.635961 48.7662 0.459961 50.2476 0.459961C51.7289 0.459961 53.0929 0.635961 54.3396 0.987962C55.5862 1.33996 56.5689 1.80929 57.2876 2.39596C58.0209 2.96796 58.3876 3.5693 58.3876 4.19996C58.3876 4.83063 58.0209 5.43929 57.2876 6.02596C56.5689 6.59796 55.5862 7.05996 54.3396 7.41196C53.0929 7.76396 51.7289 7.93996 50.2476 7.93996ZM50.2476 7.05996C51.3329 7.05996 52.3522 6.9573 53.3056 6.75196C54.2736 6.54663 55.0949 6.2753 55.7696 5.93796C56.4296 5.60063 56.8916 5.2633 57.1556 4.92596C57.3756 4.70596 57.4856 4.47863 57.4856 4.24396V4.15596C57.4856 3.9213 57.3756 3.69396 57.1556 3.47396C56.8916 3.13663 56.4296 2.79929 55.7696 2.46196C55.0949 2.12463 54.2736 1.85329 53.3056 1.64796C52.3522 1.44263 51.3329 1.33996 50.2476 1.33996C49.1622 1.33996 48.1356 1.44263 47.1676 1.64796C46.2142 1.85329 45.4002 2.12463 44.7256 2.46196C44.0656 2.79929 43.6036 3.13663 43.3396 3.47396C43.1196 3.69396 43.0096 3.9213 43.0096 4.15596V4.24396C43.0096 4.47863 43.1196 4.70596 43.3396 4.92596C43.6036 5.2633 44.0656 5.60063 44.7256 5.93796C45.4002 6.2753 46.2142 6.54663 47.1676 6.75196C48.1356 6.9573 49.1622 7.05996 50.2476 7.05996Z" fill="#0D0D0D" style="fill:#0D0D0D;fill:color(display-p3 0.0510 0.0510 0.0510);fill-opacity:1;"/>
</svg>
