<svg width="178" height="8" viewBox="0 0 178 8" fill="none" xmlns="http://www.w3.org/2000/svg">
<path d="M0.980469 0.459961H1.86047V7.93996H0.980469V0.459961Z" fill="#0D0D0D" style="fill:#0D0D0D;fill:color(display-p3 0.0510 0.0510 0.0510);fill-opacity:1;"/>
<path d="M5.15445 0.745961L20.5545 6.33396V0.459961H21.4345V7.65396L6.03445 2.06596V7.93996H5.15445V0.745961Z" fill="#0D0D0D" style="fill:#0D0D0D;fill:color(display-p3 0.0510 0.0510 0.0510);fill-opacity:1;"/>
<path d="M24.7267 0.459961H41.0067V1.33996H25.6067V3.75996H32.2067V4.63996H25.6067V7.93996H24.7267V0.459961Z" fill="#0D0D0D" style="fill:#0D0D0D;fill:color(display-p3 0.0510 0.0510 0.0510);fill-opacity:1;"/>
<path d="M50.2476 7.93996C48.7662 7.93996 47.4022 7.76396 46.1556 7.41196C44.9089 7.05996 43.9189 6.59796 43.1856 6.02596C42.4669 5.43929 42.1076 4.83063 42.1076 4.19996C42.1076 3.5693 42.4669 2.96796 43.1856 2.39596C43.9189 1.80929 44.9089 1.33996 46.1556 0.987962C47.4022 0.635961 48.7662 0.459961 50.2476 0.459961C51.7289 0.459961 53.0929 0.635961 54.3396 0.987962C55.5862 1.33996 56.5689 1.80929 57.2876 2.39596C58.0209 2.96796 58.3876 3.5693 58.3876 4.19996C58.3876 4.83063 58.0209 5.43929 57.2876 6.02596C56.5689 6.59796 55.5862 7.05996 54.3396 7.41196C53.0929 7.76396 51.7289 7.93996 50.2476 7.93996ZM50.2476 7.05996C51.3329 7.05996 52.3522 6.9573 53.3056 6.75196C54.2736 6.54663 55.0949 6.2753 55.7696 5.93796C56.4296 5.60063 56.8916 5.2633 57.1556 4.92596C57.3756 4.70596 57.4856 4.47863 57.4856 4.24396V4.15596C57.4856 3.9213 57.3756 3.69396 57.1556 3.47396C56.8916 3.13663 56.4296 2.79929 55.7696 2.46196C55.0949 2.12463 54.2736 1.85329 53.3056 1.64796C52.3522 1.44263 51.3329 1.33996 50.2476 1.33996C49.1622 1.33996 48.1356 1.44263 47.1676 1.64796C46.2142 1.85329 45.4002 2.12463 44.7256 2.46196C44.0656 2.79929 43.6036 3.13663 43.3396 3.47396C43.1196 3.69396 43.0096 3.9213 43.0096 4.15596V4.24396C43.0096 4.47863 43.1196 4.70596 43.3396 4.92596C43.6036 5.2633 44.0656 5.60063 44.7256 5.93796C45.4002 6.2753 46.2142 6.54663 47.1676 6.75196C48.1356 6.9573 49.1622 7.05996 50.2476 7.05996Z" fill="#0D0D0D" style="fill:#0D0D0D;fill:color(display-p3 0.0510 0.0510 0.0510);fill-opacity:1;"/>
<path d="M61.6798 0.459961H75.8698C76.4565 0.459961 76.9478 0.665294 77.3438 1.07596C77.7545 1.47196 77.9598 1.96329 77.9598 2.54996C77.9598 3.13663 77.7545 3.63529 77.3438 4.04596C76.9478 4.44196 76.4565 4.63996 75.8698 4.63996H73.7358L77.0358 7.93996H75.7818L72.4818 4.63996H62.5598V7.93996H61.6798V0.459961ZM75.8698 3.75996C76.2072 3.75996 76.4932 3.64263 76.7278 3.40796C76.9625 3.15863 77.0798 2.87263 77.0798 2.54996C77.0798 2.21263 76.9625 1.92663 76.7278 1.69196C76.4932 1.45729 76.2072 1.33996 75.8698 1.33996H62.5598V3.75996H75.8698Z" fill="#0D0D0D" style="fill:#0D0D0D;fill:color(display-p3 0.0510 0.0510 0.0510);fill-opacity:1;"/>
<path d="M81.2521 1.07596L89.3921 6.77396L97.5321 1.07596V7.93996H96.6521V2.70396L89.3921 7.78596L82.1321 2.70396V7.93996H81.2521V1.07596Z" fill="#0D0D0D" style="fill:#0D0D0D;fill:color(display-p3 0.0510 0.0510 0.0510);fill-opacity:1;"/>
<path d="M108.964 0.723961L116.18 7.93996H114.926L112.726 5.73996H105.202L103.002 7.93996H101.748L108.964 0.723961ZM111.846 4.85996L108.964 1.97796L106.082 4.85996H111.846Z" fill="#0D0D0D" style="fill:#0D0D0D;fill:color(display-p3 0.0510 0.0510 0.0510);fill-opacity:1;"/>
<path d="M124.81 1.33996H117.11V0.459961H133.39V1.33996H125.69V7.93996H124.81V1.33996Z" fill="#0D0D0D" style="fill:#0D0D0D;fill:color(display-p3 0.0510 0.0510 0.0510);fill-opacity:1;"/>
<path d="M137.342 0.459961H138.222V7.93996H137.342V0.459961Z" fill="#0D0D0D" style="fill:#0D0D0D;fill:color(display-p3 0.0510 0.0510 0.0510);fill-opacity:1;"/>
<path d="M149.656 7.93996C148.174 7.93996 146.81 7.76396 145.564 7.41196C144.317 7.05996 143.327 6.59796 142.594 6.02596C141.875 5.43929 141.516 4.83063 141.516 4.19996C141.516 3.5693 141.875 2.96796 142.594 2.39596C143.327 1.80929 144.317 1.33996 145.564 0.987962C146.81 0.635961 148.174 0.459961 149.656 0.459961C151.137 0.459961 152.501 0.635961 153.748 0.987962C154.994 1.33996 155.977 1.80929 156.696 2.39596C157.429 2.96796 157.796 3.5693 157.796 4.19996C157.796 4.83063 157.429 5.43929 156.696 6.02596C155.977 6.59796 154.994 7.05996 153.748 7.41196C152.501 7.76396 151.137 7.93996 149.656 7.93996ZM149.656 7.05996C150.741 7.05996 151.76 6.9573 152.714 6.75196C153.682 6.54663 154.503 6.2753 155.178 5.93796C155.838 5.60063 156.3 5.2633 156.564 4.92596C156.784 4.70596 156.894 4.47863 156.894 4.24396V4.15596C156.894 3.9213 156.784 3.69396 156.564 3.47396C156.3 3.13663 155.838 2.79929 155.178 2.46196C154.503 2.12463 153.682 1.85329 152.714 1.64796C151.76 1.44263 150.741 1.33996 149.656 1.33996C148.57 1.33996 147.544 1.44263 146.576 1.64796C145.622 1.85329 144.808 2.12463 144.134 2.46196C143.474 2.79929 143.012 3.13663 142.748 3.47396C142.528 3.69396 142.418 3.9213 142.418 4.15596V4.24396C142.418 4.47863 142.528 4.70596 142.748 4.92596C143.012 5.2633 143.474 5.60063 144.134 5.93796C144.808 6.2753 145.622 6.54663 146.576 6.75196C147.544 6.9573 148.57 7.05996 149.656 7.05996Z" fill="#0D0D0D" style="fill:#0D0D0D;fill:color(display-p3 0.0510 0.0510 0.0510);fill-opacity:1;"/>
<path d="M161.088 0.745961L176.488 6.33396V0.459961H177.368V7.65396L161.968 2.06596V7.93996H161.088V0.745961Z" fill="#0D0D0D" style="fill:#0D0D0D;fill:color(display-p3 0.0510 0.0510 0.0510);fill-opacity:1;"/>
</svg>
