<svg width="243" height="8" viewBox="0 0 243 8" fill="none" xmlns="http://www.w3.org/2000/svg">
<path d="M0 0H14.19C14.7767 0 15.268 0.205333 15.664 0.616C16.0747 1.012 16.28 1.50333 16.28 2.09C16.28 2.67667 16.0747 3.17533 15.664 3.586C15.268 3.982 14.7767 4.18 14.19 4.18H0.88V7.48H0V0ZM14.19 3.3C14.5273 3.3 14.8133 3.18267 15.048 2.948C15.2827 2.69867 15.4 2.41267 15.4 2.09C15.4 1.75267 15.2827 1.46667 15.048 1.232C14.8133 0.997334 14.5273 0.88 14.19 0.88H0.88V3.3H14.19Z" fill="#0D0D0D" style="fill:#0D0D0D;fill:color(display-p3 0.0510 0.0510 0.0510);fill-opacity:1;"/>
<path d="M27.7123 7.48C26.2309 7.48 24.8669 7.304 23.6203 6.952C22.3736 6.6 21.3836 6.138 20.6503 5.566C19.9316 4.97933 19.5723 4.37067 19.5723 3.74C19.5723 3.10933 19.9316 2.508 20.6503 1.936C21.3836 1.34933 22.3736 0.880001 23.6203 0.528001C24.8669 0.176 26.2309 0 27.7123 0C29.1936 0 30.5576 0.176 31.8043 0.528001C33.0509 0.880001 34.0336 1.34933 34.7523 1.936C35.4856 2.508 35.8523 3.10933 35.8523 3.74C35.8523 4.37067 35.4856 4.97933 34.7523 5.566C34.0336 6.138 33.0509 6.6 31.8043 6.952C30.5576 7.304 29.1936 7.48 27.7123 7.48ZM27.7123 6.6C28.7976 6.6 29.8169 6.49733 30.7703 6.292C31.7383 6.08667 32.5596 5.81533 33.2343 5.478C33.8943 5.14067 34.3563 4.80333 34.6203 4.466C34.8403 4.246 34.9503 4.01867 34.9503 3.784V3.696C34.9503 3.46133 34.8403 3.234 34.6203 3.014C34.3563 2.67667 33.8943 2.33933 33.2343 2.002C32.5596 1.66467 31.7383 1.39333 30.7703 1.188C29.8169 0.982667 28.7976 0.88 27.7123 0.88C26.6269 0.88 25.6003 0.982667 24.6323 1.188C23.6789 1.39333 22.8649 1.66467 22.1903 2.002C21.5303 2.33933 21.0683 2.67667 20.8043 3.014C20.5843 3.234 20.4743 3.46133 20.4743 3.696V3.784C20.4743 4.01867 20.5843 4.246 20.8043 4.466C21.0683 4.80333 21.5303 5.14067 22.1903 5.478C22.8649 5.81533 23.6789 6.08667 24.6323 6.292C25.6003 6.49733 26.6269 6.6 27.7123 6.6Z" fill="#0D0D0D" style="fill:#0D0D0D;fill:color(display-p3 0.0510 0.0510 0.0510);fill-opacity:1;"/>
<path d="M39.1445 0H53.3345C53.9212 0 54.4125 0.205333 54.8085 0.616C55.2192 1.012 55.4245 1.50333 55.4245 2.09C55.4245 2.67667 55.2192 3.17533 54.8085 3.586C54.4125 3.982 53.9212 4.18 53.3345 4.18H51.2005L54.5005 7.48H53.2465L49.9465 4.18H40.0245V7.48H39.1445V0ZM53.3345 3.3C53.6719 3.3 53.9579 3.18267 54.1925 2.948C54.4272 2.69867 54.5445 2.41267 54.5445 2.09C54.5445 1.75267 54.4272 1.46667 54.1925 1.232C53.9579 0.997334 53.6719 0.88 53.3345 0.88H40.0245V3.3H53.3345Z" fill="#0D0D0D" style="fill:#0D0D0D;fill:color(display-p3 0.0510 0.0510 0.0510);fill-opacity:1;"/>
<path d="M65.7508 0.88H58.0508V0H74.3308V0.88H66.6308V7.48H65.7508V0.88Z" fill="#0D0D0D" style="fill:#0D0D0D;fill:color(display-p3 0.0510 0.0510 0.0510);fill-opacity:1;"/>
<path d="M77.623 0H93.903V0.88H78.503V3.3H85.1031V4.18H78.503V7.48H77.623V0Z" fill="#0D0D0D" style="fill:#0D0D0D;fill:color(display-p3 0.0510 0.0510 0.0510);fill-opacity:1;"/>
<path d="M103.144 7.48C101.663 7.48 100.299 7.304 99.0519 6.952C97.8052 6.6 96.8152 6.138 96.0819 5.566C95.3632 4.97933 95.0039 4.37067 95.0039 3.74C95.0039 3.10933 95.3632 2.508 96.0819 1.936C96.8152 1.34933 97.8052 0.880001 99.0519 0.528001C100.299 0.176 101.663 0 103.144 0C104.625 0 105.989 0.176 107.236 0.528001C108.483 0.880001 109.465 1.34933 110.184 1.936C110.917 2.508 111.284 3.10933 111.284 3.74C111.284 4.37067 110.917 4.97933 110.184 5.566C109.465 6.138 108.483 6.6 107.236 6.952C105.989 7.304 104.625 7.48 103.144 7.48ZM103.144 6.6C104.229 6.6 105.249 6.49733 106.202 6.292C107.17 6.08667 107.991 5.81533 108.666 5.478C109.326 5.14067 109.788 4.80333 110.052 4.466C110.272 4.246 110.382 4.01867 110.382 3.784V3.696C110.382 3.46133 110.272 3.234 110.052 3.014C109.788 2.67667 109.326 2.33933 108.666 2.002C107.991 1.66467 107.17 1.39333 106.202 1.188C105.249 0.982667 104.229 0.88 103.144 0.88C102.059 0.88 101.032 0.982667 100.064 1.188C99.1106 1.39333 98.2966 1.66467 97.6219 2.002C96.9619 2.33933 96.4999 2.67667 96.2359 3.014C96.0159 3.234 95.9059 3.46133 95.9059 3.696V3.784C95.9059 4.01867 96.0159 4.246 96.2359 4.466C96.4999 4.80333 96.9619 5.14067 97.6219 5.478C98.2966 5.81533 99.1106 6.08667 100.064 6.292C101.032 6.49733 102.059 6.6 103.144 6.6Z" fill="#0D0D0D" style="fill:#0D0D0D;fill:color(display-p3 0.0510 0.0510 0.0510);fill-opacity:1;"/>
<path d="M114.576 0H115.456V6.6H130.856V7.48H114.576V0Z" fill="#0D0D0D" style="fill:#0D0D0D;fill:color(display-p3 0.0510 0.0510 0.0510);fill-opacity:1;"/>
<path d="M134.808 0H135.688V7.48H134.808V0Z" fill="#0D0D0D" style="fill:#0D0D0D;fill:color(display-p3 0.0510 0.0510 0.0510);fill-opacity:1;"/>
<path d="M147.122 7.48C145.641 7.48 144.277 7.304 143.03 6.952C141.784 6.6 140.794 6.138 140.06 5.566C139.342 4.97933 138.982 4.37067 138.982 3.74C138.982 3.10933 139.342 2.508 140.06 1.936C140.794 1.34933 141.784 0.880001 143.03 0.528001C144.277 0.176 145.641 0 147.122 0C148.604 0 149.968 0.176 151.214 0.528001C152.461 0.880001 153.444 1.34933 154.162 1.936C154.896 2.508 155.262 3.10933 155.262 3.74C155.262 4.37067 154.896 4.97933 154.162 5.566C153.444 6.138 152.461 6.6 151.214 6.952C149.968 7.304 148.604 7.48 147.122 7.48ZM147.122 6.6C148.208 6.6 149.227 6.49733 150.18 6.292C151.148 6.08667 151.97 5.81533 152.644 5.478C153.304 5.14067 153.766 4.80333 154.03 4.466C154.25 4.246 154.36 4.01867 154.36 3.784V3.696C154.36 3.46133 154.25 3.234 154.03 3.014C153.766 2.67667 153.304 2.33933 152.644 2.002C151.97 1.66467 151.148 1.39333 150.18 1.188C149.227 0.982667 148.208 0.88 147.122 0.88C146.037 0.88 145.01 0.982667 144.042 1.188C143.089 1.39333 142.275 1.66467 141.6 2.002C140.94 2.33933 140.478 2.67667 140.214 3.014C139.994 3.234 139.884 3.46133 139.884 3.696V3.784C139.884 4.01867 139.994 4.246 140.214 4.466C140.478 4.80333 140.94 5.14067 141.6 5.478C142.275 5.81533 143.089 6.08667 144.042 6.292C145.01 6.49733 146.037 6.6 147.122 6.6Z" fill="#0D0D0D" style="fill:#0D0D0D;fill:color(display-p3 0.0510 0.0510 0.0510);fill-opacity:1;"/>
</svg>
