<svg width="156" height="8" viewBox="0 0 156 8" fill="none" xmlns="http://www.w3.org/2000/svg">
<path d="M0.320312 0.459961H14.5103C15.097 0.459961 15.5883 0.665294 15.9843 1.07596C16.395 1.47196 16.6003 1.96329 16.6003 2.54996C16.6003 3.13663 16.395 3.63529 15.9843 4.04596C15.5883 4.44196 15.097 4.63996 14.5103 4.63996H1.20031V7.93996H0.320312V0.459961ZM14.5103 3.75996C14.8476 3.75996 15.1336 3.64263 15.3683 3.40796C15.603 3.15863 15.7203 2.87263 15.7203 2.54996C15.7203 2.21263 15.603 1.92663 15.3683 1.69196C15.1336 1.45729 14.8476 1.33996 14.5103 1.33996H1.20031V3.75996H14.5103Z" fill="#0D0D0D" style="fill:#0D0D0D;fill:color(display-p3 0.0510 0.0510 0.0510);fill-opacity:1;"/>
<path d="M28.0326 7.93996C26.5512 7.93996 25.1872 7.76396 23.9406 7.41196C22.6939 7.05996 21.7039 6.59796 20.9706 6.02596C20.2519 5.43929 19.8926 4.83063 19.8926 4.19996C19.8926 3.5693 20.2519 2.96796 20.9706 2.39596C21.7039 1.80929 22.6939 1.33996 23.9406 0.987962C25.1872 0.635961 26.5512 0.459961 28.0326 0.459961C29.5139 0.459961 30.8779 0.635961 32.1246 0.987962C33.3712 1.33996 34.3539 1.80929 35.0726 2.39596C35.8059 2.96796 36.1726 3.5693 36.1726 4.19996C36.1726 4.83063 35.8059 5.43929 35.0726 6.02596C34.3539 6.59796 33.3712 7.05996 32.1246 7.41196C30.8779 7.76396 29.5139 7.93996 28.0326 7.93996ZM28.0326 7.05996C29.1179 7.05996 30.1372 6.9573 31.0906 6.75196C32.0586 6.54663 32.8799 6.2753 33.5546 5.93796C34.2146 5.60063 34.6766 5.2633 34.9406 4.92596C35.1606 4.70596 35.2706 4.47863 35.2706 4.24396V4.15596C35.2706 3.9213 35.1606 3.69396 34.9406 3.47396C34.6766 3.13663 34.2146 2.79929 33.5546 2.46196C32.8799 2.12463 32.0586 1.85329 31.0906 1.64796C30.1372 1.44263 29.1179 1.33996 28.0326 1.33996C26.9472 1.33996 25.9206 1.44263 24.9526 1.64796C23.9992 1.85329 23.1852 2.12463 22.5106 2.46196C21.8506 2.79929 21.3886 3.13663 21.1246 3.47396C20.9046 3.69396 20.7946 3.9213 20.7946 4.15596V4.24396C20.7946 4.47863 20.9046 4.70596 21.1246 4.92596C21.3886 5.2633 21.8506 5.60063 22.5106 5.93796C23.1852 6.2753 23.9992 6.54663 24.9526 6.75196C25.9206 6.9573 26.9472 7.05996 28.0326 7.05996Z" fill="#0D0D0D" style="fill:#0D0D0D;fill:color(display-p3 0.0510 0.0510 0.0510);fill-opacity:1;"/>
<path d="M39.4648 0.459961H53.6548C54.2415 0.459961 54.7328 0.665294 55.1288 1.07596C55.5395 1.47196 55.7448 1.96329 55.7448 2.54996C55.7448 3.13663 55.5395 3.63529 55.1288 4.04596C54.7328 4.44196 54.2415 4.63996 53.6548 4.63996H51.5208L54.8208 7.93996H53.5668L50.2668 4.63996H40.3448V7.93996H39.4648V0.459961ZM53.6548 3.75996C53.9922 3.75996 54.2782 3.64263 54.5128 3.40796C54.7475 3.15863 54.8648 2.87263 54.8648 2.54996C54.8648 2.21263 54.7475 1.92663 54.5128 1.69196C54.2782 1.45729 53.9922 1.33996 53.6548 1.33996H40.3448V3.75996H53.6548Z" fill="#0D0D0D" style="fill:#0D0D0D;fill:color(display-p3 0.0510 0.0510 0.0510);fill-opacity:1;"/>
<path d="M66.0711 1.33996H58.3711V0.459961H74.6511V1.33996H66.9511V7.93996H66.0711V1.33996Z" fill="#0D0D0D" style="fill:#0D0D0D;fill:color(display-p3 0.0510 0.0510 0.0510);fill-opacity:1;"/>
<path d="M77.9434 0.459961H94.2234V1.33996H78.8234V3.75996H85.4234V4.63996H78.8234V7.93996H77.9434V0.459961Z" fill="#0D0D0D" style="fill:#0D0D0D;fill:color(display-p3 0.0510 0.0510 0.0510);fill-opacity:1;"/>
<path d="M103.464 7.93996C101.983 7.93996 100.619 7.76396 99.3722 7.41196C98.1256 7.05996 97.1356 6.59796 96.4022 6.02596C95.6836 5.43929 95.3242 4.83063 95.3242 4.19996C95.3242 3.5693 95.6836 2.96796 96.4022 2.39596C97.1356 1.80929 98.1256 1.33996 99.3722 0.987962C100.619 0.635961 101.983 0.459961 103.464 0.459961C104.946 0.459961 106.31 0.635961 107.556 0.987962C108.803 1.33996 109.786 1.80929 110.504 2.39596C111.238 2.96796 111.604 3.5693 111.604 4.19996C111.604 4.83063 111.238 5.43929 110.504 6.02596C109.786 6.59796 108.803 7.05996 107.556 7.41196C106.31 7.76396 104.946 7.93996 103.464 7.93996ZM103.464 7.05996C104.55 7.05996 105.569 6.9573 106.522 6.75196C107.49 6.54663 108.312 6.2753 108.986 5.93796C109.646 5.60063 110.108 5.2633 110.372 4.92596C110.592 4.70596 110.702 4.47863 110.702 4.24396V4.15596C110.702 3.9213 110.592 3.69396 110.372 3.47396C110.108 3.13663 109.646 2.79929 108.986 2.46196C108.312 2.12463 107.49 1.85329 106.522 1.64796C105.569 1.44263 104.55 1.33996 103.464 1.33996C102.379 1.33996 101.352 1.44263 100.384 1.64796C99.4309 1.85329 98.6169 2.12463 97.9422 2.46196C97.2822 2.79929 96.8202 3.13663 96.5562 3.47396C96.3362 3.69396 96.2262 3.9213 96.2262 4.15596V4.24396C96.2262 4.47863 96.3362 4.70596 96.5562 4.92596C96.8202 5.2633 97.2822 5.60063 97.9422 5.93796C98.6169 6.2753 99.4309 6.54663 100.384 6.75196C101.352 6.9573 102.379 7.05996 103.464 7.05996Z" fill="#0D0D0D" style="fill:#0D0D0D;fill:color(display-p3 0.0510 0.0510 0.0510);fill-opacity:1;"/>
<path d="M114.896 0.459961H115.776V7.05996H131.176V7.93996H114.896V0.459961Z" fill="#0D0D0D" style="fill:#0D0D0D;fill:color(display-p3 0.0510 0.0510 0.0510);fill-opacity:1;"/>
<path d="M135.129 0.459961H136.009V7.93996H135.129V0.459961Z" fill="#0D0D0D" style="fill:#0D0D0D;fill:color(display-p3 0.0510 0.0510 0.0510);fill-opacity:1;"/>
<path d="M147.443 7.93996C145.961 7.93996 144.597 7.76396 143.351 7.41196C142.104 7.05996 141.114 6.59796 140.381 6.02596C139.662 5.43929 139.303 4.83063 139.303 4.19996C139.303 3.5693 139.662 2.96796 140.381 2.39596C141.114 1.80929 142.104 1.33996 143.351 0.987962C144.597 0.635961 145.961 0.459961 147.443 0.459961C148.924 0.459961 150.288 0.635961 151.535 0.987962C152.781 1.33996 153.764 1.80929 154.483 2.39596C155.216 2.96796 155.583 3.5693 155.583 4.19996C155.583 4.83063 155.216 5.43929 154.483 6.02596C153.764 6.59796 152.781 7.05996 151.535 7.41196C150.288 7.76396 148.924 7.93996 147.443 7.93996ZM147.443 7.05996C148.528 7.05996 149.547 6.9573 150.501 6.75196C151.469 6.54663 152.29 6.2753 152.965 5.93796C153.625 5.60063 154.087 5.2633 154.351 4.92596C154.571 4.70596 154.681 4.47863 154.681 4.24396V4.15596C154.681 3.9213 154.571 3.69396 154.351 3.47396C154.087 3.13663 153.625 2.79929 152.965 2.46196C152.29 2.12463 151.469 1.85329 150.501 1.64796C149.547 1.44263 148.528 1.33996 147.443 1.33996C146.357 1.33996 145.331 1.44263 144.363 1.64796C143.409 1.85329 142.595 2.12463 141.921 2.46196C141.261 2.79929 140.799 3.13663 140.535 3.47396C140.315 3.69396 140.205 3.9213 140.205 4.15596V4.24396C140.205 4.47863 140.315 4.70596 140.535 4.92596C140.799 5.2633 141.261 5.60063 141.921 5.93796C142.595 6.2753 143.409 6.54663 144.363 6.75196C145.331 6.9573 146.357 7.05996 147.443 7.05996Z" fill="#0D0D0D" style="fill:#0D0D0D;fill:color(display-p3 0.0510 0.0510 0.0510);fill-opacity:1;"/>
</svg>
