<svg width="696" height="17" viewBox="0 0 696 17" fill="none" xmlns="http://www.w3.org/2000/svg">
<path d="M0.168945 0.640137H35.6889V2.56014H2.08895V7.84014H35.6889V9.76014H2.08895V15.0401H35.6889V16.9601H0.168945V0.640137Z" fill="#0D0D0D" style="fill:#0D0D0D;fill:color(display-p3 0.0510 0.0510 0.0510);fill-opacity:1;"/>
<path d="M42.0287 0.640137H44.7647L57.7727 13.6481L70.7807 0.640137H73.5167L57.7727 16.3841L42.0287 0.640137Z" fill="#0D0D0D" style="fill:#0D0D0D;fill:color(display-p3 0.0510 0.0510 0.0510);fill-opacity:1;"/>
<path d="M79.8564 0.640137H115.376V2.56014H81.7764V7.84014H115.376V9.76014H81.7764V15.0401H115.376V16.9601H79.8564V0.640137Z" fill="#0D0D0D" style="fill:#0D0D0D;fill:color(display-p3 0.0510 0.0510 0.0510);fill-opacity:1;"/>
<path d="M122.56 0.640137H153.52C154.8 0.640137 155.872 1.08814 156.736 1.98414C157.632 2.84814 158.08 3.92014 158.08 5.20014C158.08 6.48014 157.632 7.56814 156.736 8.46414C155.872 9.32814 154.8 9.76014 153.52 9.76014H148.864L156.064 16.9601H153.328L146.128 9.76014H124.48V16.9601H122.56V0.640137ZM153.52 7.84014C154.256 7.84014 154.88 7.58414 155.392 7.07214C155.904 6.52814 156.16 5.90414 156.16 5.20014C156.16 4.46414 155.904 3.84014 155.392 3.32814C154.88 2.81614 154.256 2.56014 153.52 2.56014H124.48V7.84014H153.52Z" fill="#0D0D0D" style="fill:#0D0D0D;fill:color(display-p3 0.0510 0.0510 0.0510);fill-opacity:1;"/>
<path d="M175.312 9.32814L161.968 0.640137H165.472L176.272 7.64814L187.072 0.640137H190.576L177.232 9.32814V16.9601H175.312V9.32814Z" fill="#0D0D0D" style="fill:#0D0D0D;fill:color(display-p3 0.0510 0.0510 0.0510);fill-opacity:1;"/>
<path d="M213.656 2.56014H196.856V0.640137H232.376V2.56014H215.576V16.9601H213.656V2.56014Z" fill="#0D0D0D" style="fill:#0D0D0D;fill:color(display-p3 0.0510 0.0510 0.0510);fill-opacity:1;"/>
<path d="M238.622 0.640137H240.542V7.84014H272.222V0.640137H274.142V16.9601H272.222V9.76014H240.542V16.9601H238.622V0.640137Z" fill="#0D0D0D" style="fill:#0D0D0D;fill:color(display-p3 0.0510 0.0510 0.0510);fill-opacity:1;"/>
<path d="M281.312 0.640137H283.232V16.9601H281.312V0.640137Z" fill="#0D0D0D" style="fill:#0D0D0D;fill:color(display-p3 0.0510 0.0510 0.0510);fill-opacity:1;"/>
<path d="M290.419 1.26414L324.019 13.4561V0.640137H325.939V16.3361L292.339 4.14414V16.9601H290.419V1.26414Z" fill="#0D0D0D" style="fill:#0D0D0D;fill:color(display-p3 0.0510 0.0510 0.0510);fill-opacity:1;"/>
<path d="M349.429 16.9601C346.197 16.9601 343.221 16.5761 340.501 15.8081C337.781 15.0401 335.621 14.0321 334.021 12.7841C332.453 11.5041 331.669 10.1761 331.669 8.80014C331.669 7.42414 332.453 6.11214 334.021 4.86414C335.621 3.58414 337.781 2.56014 340.501 1.79214C343.221 1.02414 346.197 0.640137 349.429 0.640137H352.789V2.56014H349.429C347.061 2.56014 344.821 2.78414 342.709 3.23214C340.629 3.68014 338.853 4.27214 337.381 5.00814C335.941 5.74414 334.933 6.48014 334.357 7.21614C333.877 7.69614 333.637 8.19214 333.637 8.70414V8.89614C333.637 9.40814 333.877 9.90414 334.357 10.3841C334.933 11.1201 335.941 11.8561 337.381 12.5921C338.853 13.3281 340.629 13.9201 342.709 14.3681C344.821 14.8161 347.061 15.0401 349.429 15.0401C352.085 15.0401 354.885 14.6721 357.829 13.9361C360.805 13.1681 363.205 11.7761 365.029 9.76014H350.869V7.84014H367.189V8.80014C367.189 10.1761 366.389 11.5041 364.789 12.7841C363.221 14.0321 361.077 15.0401 358.357 15.8081C355.637 16.5761 352.661 16.9601 349.429 16.9601Z" fill="#0D0D0D" style="fill:#0D0D0D;fill:color(display-p3 0.0510 0.0510 0.0510);fill-opacity:1;"/>
<path d="M393.122 0.640137H424.082C425.362 0.640137 426.434 1.08814 427.298 1.98414C428.194 2.84814 428.642 3.92014 428.642 5.20014C428.642 6.48014 428.194 7.56814 427.298 8.46414C426.434 9.32814 425.362 9.76014 424.082 9.76014H395.042V16.9601H393.122V0.640137ZM424.082 7.84014C424.818 7.84014 425.442 7.58414 425.954 7.07214C426.466 6.52814 426.722 5.90414 426.722 5.20014C426.722 4.46414 426.466 3.84014 425.954 3.32814C425.442 2.81614 424.818 2.56014 424.082 2.56014H395.042V7.84014H424.082Z" fill="#0D0D0D" style="fill:#0D0D0D;fill:color(display-p3 0.0510 0.0510 0.0510);fill-opacity:1;"/>
<path d="M453.585 16.9601C450.353 16.9601 447.377 16.5761 444.657 15.8081C441.937 15.0401 439.777 14.0321 438.177 12.7841C436.609 11.5041 435.825 10.1761 435.825 8.80014C435.825 7.42414 436.609 6.11214 438.177 4.86414C439.777 3.58414 441.937 2.56014 444.657 1.79214C447.377 1.02414 450.353 0.640137 453.585 0.640137C456.817 0.640137 459.793 1.02414 462.513 1.79214C465.233 2.56014 467.377 3.58414 468.945 4.86414C470.545 6.11214 471.345 7.42414 471.345 8.80014C471.345 10.1761 470.545 11.5041 468.945 12.7841C467.377 14.0321 465.233 15.0401 462.513 15.8081C459.793 16.5761 456.817 16.9601 453.585 16.9601ZM453.585 15.0401C455.953 15.0401 458.177 14.8161 460.257 14.3681C462.369 13.9201 464.161 13.3281 465.633 12.5921C467.073 11.8561 468.081 11.1201 468.657 10.3841C469.137 9.90414 469.377 9.40814 469.377 8.89614V8.70414C469.377 8.19214 469.137 7.69614 468.657 7.21614C468.081 6.48014 467.073 5.74414 465.633 5.00814C464.161 4.27214 462.369 3.68014 460.257 3.23214C458.177 2.78414 455.953 2.56014 453.585 2.56014C451.217 2.56014 448.977 2.78414 446.865 3.23214C444.785 3.68014 443.009 4.27214 441.537 5.00814C440.097 5.74414 439.089 6.48014 438.513 7.21614C438.033 7.69614 437.793 8.19214 437.793 8.70414V8.89614C437.793 9.40814 438.033 9.90414 438.513 10.3841C439.089 11.1201 440.097 11.8561 441.537 12.5921C443.009 13.3281 444.785 13.9201 446.865 14.3681C448.977 14.8161 451.217 15.0401 453.585 15.0401Z" fill="#0D0D0D" style="fill:#0D0D0D;fill:color(display-p3 0.0510 0.0510 0.0510);fill-opacity:1;"/>
<path d="M478.528 15.0401H509.488C510.224 15.0401 510.848 14.7841 511.36 14.2721C511.872 13.7281 512.128 13.1041 512.128 12.4001C512.128 11.6641 511.872 11.0401 511.36 10.5281C510.848 10.0161 510.224 9.76014 509.488 9.76014H483.088C481.808 9.76014 480.72 9.32814 479.824 8.46414C478.96 7.56814 478.528 6.48014 478.528 5.20014C478.528 3.92014 478.96 2.84814 479.824 1.98414C480.72 1.08814 481.808 0.640137 483.088 0.640137H514.048V2.56014H483.088C482.384 2.56014 481.76 2.81614 481.216 3.32814C480.704 3.84014 480.448 4.46414 480.448 5.20014C480.448 5.90414 480.704 6.52814 481.216 7.07214C481.76 7.58414 482.384 7.84014 483.088 7.84014H509.488C510.768 7.84014 511.84 8.28814 512.704 9.18414C513.6 10.0481 514.048 11.1201 514.048 12.4001C514.048 13.6801 513.6 14.7681 512.704 15.6641C511.84 16.5281 510.768 16.9601 509.488 16.9601H478.528V15.0401Z" fill="#0D0D0D" style="fill:#0D0D0D;fill:color(display-p3 0.0510 0.0510 0.0510);fill-opacity:1;"/>
<path d="M521.231 15.0401H552.191C552.927 15.0401 553.551 14.7841 554.063 14.2721C554.575 13.7281 554.831 13.1041 554.831 12.4001C554.831 11.6641 554.575 11.0401 554.063 10.5281C553.551 10.0161 552.927 9.76014 552.191 9.76014H525.791C524.511 9.76014 523.423 9.32814 522.527 8.46414C521.663 7.56814 521.231 6.48014 521.231 5.20014C521.231 3.92014 521.663 2.84814 522.527 1.98414C523.423 1.08814 524.511 0.640137 525.791 0.640137H556.751V2.56014H525.791C525.087 2.56014 524.463 2.81614 523.919 3.32814C523.407 3.84014 523.151 4.46414 523.151 5.20014C523.151 5.90414 523.407 6.52814 523.919 7.07214C524.463 7.58414 525.087 7.84014 525.791 7.84014H552.191C553.471 7.84014 554.543 8.28814 555.407 9.18414C556.303 10.0481 556.751 11.1201 556.751 12.4001C556.751 13.6801 556.303 14.7681 555.407 15.6641C554.543 16.5281 553.471 16.9601 552.191 16.9601H521.231V15.0401Z" fill="#0D0D0D" style="fill:#0D0D0D;fill:color(display-p3 0.0510 0.0510 0.0510);fill-opacity:1;"/>
<path d="M565.375 0.640137H567.295V16.9601H565.375V0.640137Z" fill="#0D0D0D" style="fill:#0D0D0D;fill:color(display-p3 0.0510 0.0510 0.0510);fill-opacity:1;"/>
<path d="M574.481 0.640137H605.441C606.721 0.640137 607.793 1.08814 608.657 1.98414C609.553 2.84814 610.001 3.92014 610.001 5.20014C610.001 6.60814 609.425 7.80814 608.273 8.80014C609.425 9.79214 610.001 10.9921 610.001 12.4001C610.001 13.6801 609.553 14.7681 608.657 15.6641C607.793 16.5281 606.721 16.9601 605.441 16.9601H574.481V0.640137ZM605.441 15.0401C606.177 15.0401 606.801 14.7841 607.313 14.2721C607.825 13.7281 608.081 13.1041 608.081 12.4001C608.081 11.6641 607.825 11.0401 607.313 10.5281C606.801 10.0161 606.177 9.76014 605.441 9.76014H576.401V15.0401H605.441ZM605.441 7.84014C606.177 7.84014 606.801 7.58414 607.313 7.07214C607.825 6.52814 608.081 5.90414 608.081 5.20014C608.081 4.46414 607.825 3.84014 607.313 3.32814C606.801 2.81614 606.177 2.56014 605.441 2.56014H576.401V7.84014H605.441Z" fill="#0D0D0D" style="fill:#0D0D0D;fill:color(display-p3 0.0510 0.0510 0.0510);fill-opacity:1;"/>
<path d="M617.185 0.640137H619.105V15.0401H652.705V16.9601H617.185V0.640137Z" fill="#0D0D0D" style="fill:#0D0D0D;fill:color(display-p3 0.0510 0.0510 0.0510);fill-opacity:1;"/>
<path d="M659.888 0.640137H695.408V2.56014H661.808V7.84014H695.408V9.76014H661.808V15.0401H695.408V16.9601H659.888V0.640137Z" fill="#0D0D0D" style="fill:#0D0D0D;fill:color(display-p3 0.0510 0.0510 0.0510);fill-opacity:1;"/>
</svg>
