<svg width="244" height="8" viewBox="0 0 244 8" fill="none" xmlns="http://www.w3.org/2000/svg">
<path d="M0.244141 0.459961H1.49814L7.46014 6.42196L13.4221 0.459961H14.6761L7.46014 7.67596L0.244141 0.459961Z" fill="black" style="fill:black;fill-opacity:1;"/>
<path d="M18.2419 0.459961H19.1219V7.93996H18.2419V0.459961Z" fill="black" style="fill:black;fill-opacity:1;"/>
<path d="M30.1158 1.33996H22.4158V0.459961H38.6958V1.33996H30.9958V7.93996H30.1158V1.33996Z" fill="black" style="fill:black;fill-opacity:1;"/>
<path d="M45.7238 0.723961L52.9398 7.93996H51.6858L49.4858 5.73996H41.9618L39.7618 7.93996H38.5078L45.7238 0.723961ZM48.6058 4.85996L45.7238 1.97796L42.8418 4.85996H48.6058Z" fill="black" style="fill:black;fill-opacity:1;"/>
<path d="M56.5115 0.459961H57.3915V7.05996H72.7915V7.93996H56.5115V0.459961Z" fill="black" style="fill:black;fill-opacity:1;"/>
<path d="M76.7438 0.459961H77.6238V7.93996H76.7438V0.459961Z" fill="black" style="fill:black;fill-opacity:1;"/>
<path d="M81.5778 0.459961H82.4578V7.93996H81.5778V0.459961Z" fill="black" style="fill:black;fill-opacity:1;"/>
<path d="M102.486 7.93996C101.092 7.93996 99.7942 7.60996 98.5915 6.94996C97.3889 6.28996 96.4062 5.38796 95.6435 4.24396C94.8955 3.09996 94.4702 1.83863 94.3675 0.459961H95.2475C95.3502 1.67729 95.7389 2.79196 96.4135 3.80396C97.0882 4.80129 97.9535 5.5933 99.0095 6.17996C100.08 6.76663 101.239 7.05996 102.486 7.05996C103.732 7.05996 104.884 6.76663 105.94 6.17996C107.01 5.5933 107.883 4.80129 108.558 3.80396C109.232 2.79196 109.621 1.67729 109.724 0.459961H110.604C110.501 1.83863 110.068 3.09996 109.306 4.24396C108.558 5.38796 107.582 6.28996 106.38 6.94996C105.177 7.60996 103.879 7.93996 102.486 7.93996Z" fill="black" style="fill:black;fill-opacity:1;"/>
<path d="M113.918 0.459961H126.458C127.132 0.459961 127.756 0.628628 128.328 0.965961C128.9 1.30329 129.354 1.75796 129.692 2.32996C130.029 2.90196 130.198 3.5253 130.198 4.19996C130.198 4.87463 130.029 5.49796 129.692 6.06996C129.354 6.64196 128.9 7.09663 128.328 7.43396C127.756 7.7713 127.132 7.93996 126.458 7.93996H113.918V0.459961ZM126.458 7.05996C126.971 7.05996 127.448 6.9353 127.888 6.68596C128.328 6.42196 128.672 6.06996 128.922 5.62996C129.186 5.18996 129.318 4.7133 129.318 4.19996C129.318 3.68663 129.186 3.20996 128.922 2.76996C128.672 2.32996 128.328 1.98529 127.888 1.73596C127.448 1.47196 126.971 1.33996 126.458 1.33996H114.798V7.05996H126.458Z" fill="black" style="fill:black;fill-opacity:1;"/>
<path d="M141.63 7.93996C140.149 7.93996 138.785 7.76396 137.538 7.41196C136.291 7.05996 135.301 6.59796 134.568 6.02596C133.849 5.43929 133.49 4.83063 133.49 4.19996C133.49 3.5693 133.849 2.96796 134.568 2.39596C135.301 1.80929 136.291 1.33996 137.538 0.987962C138.785 0.635961 140.149 0.459961 141.63 0.459961C143.111 0.459961 144.475 0.635961 145.722 0.987962C146.969 1.33996 147.951 1.80929 148.67 2.39596C149.403 2.96796 149.77 3.5693 149.77 4.19996C149.77 4.83063 149.403 5.43929 148.67 6.02596C147.951 6.59796 146.969 7.05996 145.722 7.41196C144.475 7.76396 143.111 7.93996 141.63 7.93996ZM141.63 7.05996C142.715 7.05996 143.735 6.9573 144.688 6.75196C145.656 6.54663 146.477 6.2753 147.152 5.93796C147.812 5.60063 148.274 5.2633 148.538 4.92596C148.758 4.70596 148.868 4.47863 148.868 4.24396V4.15596C148.868 3.9213 148.758 3.69396 148.538 3.47396C148.274 3.13663 147.812 2.79929 147.152 2.46196C146.477 2.12463 145.656 1.85329 144.688 1.64796C143.735 1.44263 142.715 1.33996 141.63 1.33996C140.545 1.33996 139.518 1.44263 138.55 1.64796C137.597 1.85329 136.783 2.12463 136.108 2.46196C135.448 2.79929 134.986 3.13663 134.722 3.47396C134.502 3.69396 134.392 3.9213 134.392 4.15596V4.24396C134.392 4.47863 134.502 4.70596 134.722 4.92596C134.986 5.2633 135.448 5.60063 136.108 5.93796C136.783 6.2753 137.597 6.54663 138.55 6.75196C139.518 6.9573 140.545 7.05996 141.63 7.05996Z" fill="black" style="fill:black;fill-opacity:1;"/>
<path d="M152.01 0.459961H153.264L159.226 6.42196L165.188 0.459961H166.442L159.226 7.67596L152.01 0.459961Z" fill="black" style="fill:black;fill-opacity:1;"/>
<path d="M169.347 0.459961H185.627V1.33996H170.227V3.75996H185.627V4.63996H170.227V7.05996H185.627V7.93996H169.347V0.459961Z" fill="black" style="fill:black;fill-opacity:1;"/>
<path d="M188.92 0.745961L204.32 6.33396V0.459961H205.2V7.65396L189.8 2.06596V7.93996H188.92V0.745961Z" fill="black" style="fill:black;fill-opacity:1;"/>
<path d="M208.492 0.459961H209.372V3.47396L224.772 0.591962V1.44996L210.098 4.19996L224.772 6.94996V7.80796L209.372 4.92596V7.93996H208.492V0.459961Z" fill="black" style="fill:black;fill-opacity:1;"/>
<path d="M235.109 7.93996C233.627 7.93996 232.263 7.76396 231.017 7.41196C229.77 7.05996 228.78 6.59796 228.047 6.02596C227.328 5.43929 226.969 4.83063 226.969 4.19996C226.969 3.5693 227.328 2.96796 228.047 2.39596C228.78 1.80929 229.77 1.33996 231.017 0.987962C232.263 0.635961 233.627 0.459961 235.109 0.459961C236.59 0.459961 237.954 0.635961 239.201 0.987962C240.447 1.33996 241.43 1.80929 242.149 2.39596C242.882 2.96796 243.249 3.5693 243.249 4.19996C243.249 4.83063 242.882 5.43929 242.149 6.02596C241.43 6.59796 240.447 7.05996 239.201 7.41196C237.954 7.76396 236.59 7.93996 235.109 7.93996ZM235.109 7.05996C236.194 7.05996 237.213 6.9573 238.167 6.75196C239.135 6.54663 239.956 6.2753 240.631 5.93796C241.291 5.60063 241.753 5.2633 242.017 4.92596C242.237 4.70596 242.347 4.47863 242.347 4.24396V4.15596C242.347 3.9213 242.237 3.69396 242.017 3.47396C241.753 3.13663 241.291 2.79929 240.631 2.46196C239.956 2.12463 239.135 1.85329 238.167 1.64796C237.213 1.44263 236.194 1.33996 235.109 1.33996C234.023 1.33996 232.997 1.44263 232.029 1.64796C231.075 1.85329 230.261 2.12463 229.587 2.46196C228.927 2.79929 228.465 3.13663 228.201 3.47396C227.981 3.69396 227.871 3.9213 227.871 4.15596V4.24396C227.871 4.47863 227.981 4.70596 228.201 4.92596C228.465 5.2633 228.927 5.60063 229.587 5.93796C230.261 6.2753 231.075 6.54663 232.029 6.75196C232.997 6.9573 234.023 7.05996 235.109 7.05996Z" fill="black" style="fill:black;fill-opacity:1;"/>
</svg>
