<svg width="243" height="8" viewBox="0 0 243 8" fill="none" xmlns="http://www.w3.org/2000/svg">
<path d="M0 0H1.254L7.216 5.962L13.178 0H14.432L7.216 7.216L0 0Z" fill="black" style="fill:black;fill-opacity:1;"/>
<path d="M17.9977 0H18.8777V7.48H17.9977V0Z" fill="black" style="fill:black;fill-opacity:1;"/>
<path d="M29.8717 0.88H22.1717V0H38.4517V0.88H30.7517V7.48H29.8717V0.88Z" fill="black" style="fill:black;fill-opacity:1;"/>
<path d="M45.4797 0.264001L52.6957 7.48H51.4417L49.2417 5.28H41.7177L39.5177 7.48H38.2637L45.4797 0.264001ZM48.3617 4.4L45.4797 1.518L42.5977 4.4H48.3617Z" fill="black" style="fill:black;fill-opacity:1;"/>
<path d="M56.2674 0H57.1474V6.6H72.5474V7.48H56.2674V0Z" fill="black" style="fill:black;fill-opacity:1;"/>
<path d="M76.4997 0H77.3797V7.48H76.4997V0Z" fill="black" style="fill:black;fill-opacity:1;"/>
<path d="M81.3337 0H82.2137V7.48H81.3337V0Z" fill="black" style="fill:black;fill-opacity:1;"/>
<path d="M102.241 7.48C100.848 7.48 99.5501 7.15 98.3474 6.49C97.1447 5.83 96.1621 4.928 95.3994 3.784C94.6514 2.64 94.2261 1.37867 94.1234 0H95.0034C95.1061 1.21733 95.4947 2.332 96.1694 3.344C96.8441 4.34133 97.7094 5.13333 98.7654 5.72C99.8361 6.30667 100.995 6.6 102.241 6.6C103.488 6.6 104.639 6.30667 105.695 5.72C106.766 5.13333 107.639 4.34133 108.313 3.344C108.988 2.332 109.377 1.21733 109.479 0H110.359C110.257 1.37867 109.824 2.64 109.061 3.784C108.313 4.928 107.338 5.83 106.135 6.49C104.933 7.15 103.635 7.48 102.241 7.48Z" fill="black" style="fill:black;fill-opacity:1;"/>
<path d="M113.674 0H126.214C126.888 0 127.512 0.168667 128.084 0.506C128.656 0.843333 129.11 1.298 129.448 1.87C129.785 2.442 129.954 3.06533 129.954 3.74C129.954 4.41467 129.785 5.038 129.448 5.61C129.11 6.182 128.656 6.63667 128.084 6.974C127.512 7.31133 126.888 7.48 126.214 7.48H113.674V0ZM126.214 6.6C126.727 6.6 127.204 6.47533 127.644 6.226C128.084 5.962 128.428 5.61 128.678 5.17C128.942 4.73 129.074 4.25333 129.074 3.74C129.074 3.22667 128.942 2.75 128.678 2.31C128.428 1.87 128.084 1.52533 127.644 1.276C127.204 1.012 126.727 0.88 126.214 0.88H114.554V6.6H126.214Z" fill="black" style="fill:black;fill-opacity:1;"/>
<path d="M141.386 7.48C139.905 7.48 138.541 7.304 137.294 6.952C136.047 6.6 135.057 6.138 134.324 5.566C133.605 4.97933 133.246 4.37067 133.246 3.74C133.246 3.10933 133.605 2.508 134.324 1.936C135.057 1.34933 136.047 0.880001 137.294 0.528001C138.541 0.176 139.905 0 141.386 0C142.867 0 144.231 0.176 145.478 0.528001C146.725 0.880001 147.707 1.34933 148.426 1.936C149.159 2.508 149.526 3.10933 149.526 3.74C149.526 4.37067 149.159 4.97933 148.426 5.566C147.707 6.138 146.725 6.6 145.478 6.952C144.231 7.304 142.867 7.48 141.386 7.48ZM141.386 6.6C142.471 6.6 143.491 6.49733 144.444 6.292C145.412 6.08667 146.233 5.81533 146.908 5.478C147.568 5.14067 148.03 4.80333 148.294 4.466C148.514 4.246 148.624 4.01867 148.624 3.784V3.696C148.624 3.46133 148.514 3.234 148.294 3.014C148.03 2.67667 147.568 2.33933 146.908 2.002C146.233 1.66467 145.412 1.39333 144.444 1.188C143.491 0.982667 142.471 0.88 141.386 0.88C140.301 0.88 139.274 0.982667 138.306 1.188C137.353 1.39333 136.539 1.66467 135.864 2.002C135.204 2.33933 134.742 2.67667 134.478 3.014C134.258 3.234 134.148 3.46133 134.148 3.696V3.784C134.148 4.01867 134.258 4.246 134.478 4.466C134.742 4.80333 135.204 5.14067 135.864 5.478C136.539 5.81533 137.353 6.08667 138.306 6.292C139.274 6.49733 140.301 6.6 141.386 6.6Z" fill="black" style="fill:black;fill-opacity:1;"/>
<path d="M151.766 0H153.02L158.982 5.962L164.944 0H166.198L158.982 7.216L151.766 0Z" fill="black" style="fill:black;fill-opacity:1;"/>
<path d="M169.103 0H185.383V0.88H169.983V3.3H185.383V4.18H169.983V6.6H185.383V7.48H169.103V0Z" fill="black" style="fill:black;fill-opacity:1;"/>
<path d="M188.676 0.286L204.076 5.874V0H204.956V7.194L189.556 1.606V7.48H188.676V0.286Z" fill="black" style="fill:black;fill-opacity:1;"/>
<path d="M208.248 0H209.128V3.014L224.528 0.132001V0.99L209.854 3.74L224.528 6.49V7.348L209.128 4.466V7.48H208.248V0Z" fill="black" style="fill:black;fill-opacity:1;"/>
<path d="M234.864 7.48C233.383 7.48 232.019 7.304 230.772 6.952C229.526 6.6 228.536 6.138 227.802 5.566C227.084 4.97933 226.724 4.37067 226.724 3.74C226.724 3.10933 227.084 2.508 227.802 1.936C228.536 1.34933 229.526 0.880001 230.772 0.528001C232.019 0.176 233.383 0 234.864 0C236.346 0 237.71 0.176 238.956 0.528001C240.203 0.880001 241.186 1.34933 241.904 1.936C242.638 2.508 243.004 3.10933 243.004 3.74C243.004 4.37067 242.638 4.97933 241.904 5.566C241.186 6.138 240.203 6.6 238.956 6.952C237.71 7.304 236.346 7.48 234.864 7.48ZM234.864 6.6C235.95 6.6 236.969 6.49733 237.922 6.292C238.89 6.08667 239.712 5.81533 240.386 5.478C241.046 5.14067 241.508 4.80333 241.772 4.466C241.992 4.246 242.102 4.01867 242.102 3.784V3.696C242.102 3.46133 241.992 3.234 241.772 3.014C241.508 2.67667 241.046 2.33933 240.386 2.002C239.712 1.66467 238.89 1.39333 237.922 1.188C236.969 0.982667 235.95 0.88 234.864 0.88C233.779 0.88 232.752 0.982667 231.784 1.188C230.831 1.39333 230.017 1.66467 229.342 2.002C228.682 2.33933 228.22 2.67667 227.956 3.014C227.736 3.234 227.626 3.46133 227.626 3.696V3.784C227.626 4.01867 227.736 4.246 227.956 4.466C228.22 4.80333 228.682 5.14067 229.342 5.478C230.017 5.81533 230.831 6.08667 231.784 6.292C232.752 6.49733 233.779 6.6 234.864 6.6Z" fill="black" style="fill:black;fill-opacity:1;"/>
</svg>
