<svg width="9238" height="5298" viewBox="0 0 9238 5298" fill="none" xmlns="http://www.w3.org/2000/svg">
<rect x="0.617188" y="0.496094" width="9237.23" height="5297.01" fill="#717171" style="fill:#717171;fill:color(display-p3 0.4431 0.4431 0.4431);fill-opacity:1;"/>
<g clip-path="url(#clip0_143_15)">
<rect width="1728" height="1117" transform="translate(2620.23 1532)" fill="white" style="fill:white;fill-opacity:1;"/>
<path d="M3007.52 1746.09H3068.95L3335.16 2420H3251.39L3168.55 2211.5H2907.92L2825.08 2420H2742.23L3007.52 1746.09ZM3137.83 2132.38L3038.23 1881.06L2938.64 2132.38H3137.83Z" fill="black" style="fill:black;fill-opacity:1;"/>
<path d="M3433.98 1746.09H3511.24V2341.81H3936.62V2420H3433.98V1746.09Z" fill="black" style="fill:black;fill-opacity:1;"/>
<path d="M4011.19 1746.09H4088.45V2341.81H4513.83V2420H4011.19V1746.09Z" fill="black" style="fill:black;fill-opacity:1;"/>
<path d="M3595.19 2007.47L3645.01 2133.47L3681.65 2007.47H3697.06L3733.92 2133.47L3783.51 2007.47H3803.62L3739.95 2169.21H3724.76L3689.47 2048.35L3654.17 2169.21H3638.75L3575.31 2007.47H3595.19Z" fill="black" style="fill:black;fill-opacity:1;"/>
<path d="M3817.03 2007.47H3937.66V2026.24H3835.57V2075.16H3921.13V2093.93H3835.57V2150.45H3937.66V2169.21H3817.03V2007.47Z" fill="black" style="fill:black;fill-opacity:1;"/>
<path d="M3849.23 2149V2095.09H3853.63L3878.72 2118.54L3902.92 2095.09H3907.32V2149H3901.14V2105.59L3878.72 2127.26L3855.41 2105.44V2149H3849.23Z" fill="black" style="fill:black;fill-opacity:1;"/>
<path d="M3916.28 2095.09H3956.49V2101.34H3922.46V2117.65H3950.98V2123.9H3922.46V2142.74H3956.49V2149H3916.28V2095.09Z" fill="black" style="fill:black;fill-opacity:1;"/>
</g>
<rect width="1728" height="1117" transform="translate(4875.23 1532)" fill="white" style="fill:white;fill-opacity:1;"/>
<path d="M5038.23 2414V1740.09H5093.15L5406.84 2033.3L5709.35 1740.09H5764.27V2414H5687.01V1871.34L5406.84 2142.2L5115.49 1869.47V2414H5038.23Z" fill="black" style="fill:black;fill-opacity:1;"/>
<path d="M5876.33 1740.09H6378.97V1818.28H5953.59V2022.13H6310.09V2100.32H5953.59V2335.81H6378.97V2414H5876.33V1740.09Z" fill="black" style="fill:black;fill-opacity:1;"/>
<path d="M6000.12 2141.26L6049.93 2267.26L6086.57 2141.26H6101.98L6138.84 2267.26L6188.44 2141.26H6208.54L6144.88 2303H6129.69L6094.39 2182.14L6059.09 2303H6043.68L5980.23 2141.26H6000.12Z" fill="black" style="fill:black;fill-opacity:1;"/>
<path d="M6221.95 2141.26H6342.59V2160.03H6240.5V2208.95H6326.06V2227.72H6240.5V2284.23H6342.59V2303H6221.95V2141.26Z" fill="black" style="fill:black;fill-opacity:1;"/>
<path d="M6269.46 2230.09H6274.37L6295.67 2284H6288.97L6282.34 2267.32H6261.49L6254.86 2284H6248.23L6269.46 2230.09ZM6279.88 2260.99L6271.91 2240.88L6263.95 2260.99H6279.88Z" fill="black" style="fill:black;fill-opacity:1;"/>
<path d="M6303.57 2230.09H6309.75V2277.74H6343.79V2284H6303.57V2230.09Z" fill="black" style="fill:black;fill-opacity:1;"/>
<path d="M6349.75 2230.09H6355.93V2277.74H6389.96V2284H6349.75V2230.09Z" fill="black" style="fill:black;fill-opacity:1;"/>
<rect x="4348.23" y="2001" width="527" height="178" fill="white" style="fill:white;fill-opacity:1;"/>
<rect x="996.234" y="3772.7" width="527" height="178" transform="rotate(-66.6133 996.234 3772.7)" fill="white" style="fill:white;fill-opacity:1;"/>
<rect x="8020.13" y="3874.86" width="527" height="178" transform="rotate(-106.525 8020.13 3874.86)" fill="white" style="fill:white;fill-opacity:1;"/>
<rect x="1182.73" y="3328.17" width="1806.06" height="178" transform="rotate(-47.294 1182.73 3328.17)" fill="white" style="fill:white;fill-opacity:1;"/>
<rect width="1806.06" height="178" transform="matrix(-0.678236 -0.734844 -0.734844 0.678236 8040.97 3328.17)" fill="white" style="fill:white;fill-opacity:1;"/>
<rect x="2407.23" y="2001" width="213" height="178" fill="white" style="fill:white;fill-opacity:1;"/>
<rect x="6603.23" y="2001" width="213" height="178" fill="white" style="fill:white;fill-opacity:1;"/>
<defs>
<clipPath id="clip0_143_15">
<rect width="1728" height="1117" fill="white" style="fill:white;fill-opacity:1;" transform="translate(2620.23 1532)"/>
</clipPath>
</defs>
</svg>
